<?xml version="1.0" encoding="UTF-8"?>
<svg xmlns="http://www.w3.org/2000/svg" xmlns:xlink="http://www.w3.org/1999/xlink" viewBox="0 0 176.09 85">
  <defs>
    <style>
      .cls-1 {
        fill: #fff;
      }

      .cls-2 {
        fill: url(#_未命名漸層_8);
      }

      .cls-3 {
        fill: url(#_未命名漸層_22);
      }

      .cls-4 {
        fill: #ec6d34;
      }
    </style>
    <linearGradient id="_未命名漸層_22" data-name="未命名漸層 22" x1="8187.44" y1="4155.18" x2="8166.45" y2="4155.18" gradientTransform="translate(-8112.7 -4119.57)" gradientUnits="userSpaceOnUse">
      <stop offset="0" stop-color="#ffe57a"/>
      <stop offset=".35" stop-color="#f7b65e"/>
      <stop offset=".79" stop-color="#ef8140"/>
      <stop offset="1" stop-color="#ec6d34"/>
    </linearGradient>
    <linearGradient id="_未命名漸層_8" data-name="未命名漸層 8" x1="495.06" y1="-4301.42" x2="505.12" y2="-4301.42" gradientTransform="translate(-2539.01 -3465.94) rotate(136.88)" gradientUnits="userSpaceOnUse">
      <stop offset="0" stop-color="#ffe57a"/>
      <stop offset=".07" stop-color="#fcd671"/>
      <stop offset=".26" stop-color="#f6b05b"/>
      <stop offset=".45" stop-color="#f2934a"/>
      <stop offset=".64" stop-color="#ee7d3d"/>
      <stop offset=".83" stop-color="#ec7136"/>
      <stop offset="1" stop-color="#ec6d34"/>
    </linearGradient>
  </defs>
  <g id="_文字" data-name="文字">
    <g>
      <rect class="cls-3" x="53.59" y="31.36" width="18.65" height="8.49" rx="4.25" ry="4.25" transform="translate(73.36 107.14) rotate(-127.81)"/>
      <path class="cls-4" d="m62.67,42.22c1.43,1.85,4.11,2.18,5.96.75h0c1.85-1.43,2.18-4.11.75-5.96l-3.08-3.97-6.71,5.21,3.08,3.97Z"/>
    </g>
    <path class="cls-1" d="m110.06,49.07c0,.79-.22,1.23-.66,1.32-.53.15-.99.15-1.37,0-.44-.15-.93-.59-1.46-1.32l-18.15-23.14v23.14c0,.98-.5,1.47-1.51,1.47s-1.51-.49-1.42-1.47v-26.89c-.06-.83.19-1.32.75-1.47.53-.1.99-.06,1.37.11.35.22.81.68,1.37,1.36l18.06,23.07v-23.07c0-1.01.5-1.51,1.51-1.51,1,.02,1.51.53,1.51,1.51v26.89Z"/>
    <path class="cls-1" d="m116.2,23.42c0-1.64.9-2.46,2.71-2.46h19.4c1.2-.02,1.74.26,1.74,1.21,0,.83-.58,1.25-1.74,1.25h-19.4v10.67h18.07c1.08,0,1.62.4,1.62,1.21s-.54,1.25-1.62,1.25h-18.07v11.15h19.4c1.13.02,1.7.45,1.7,1.29,0,.88-.57,1.32-1.7,1.32h-19.4c-1.81,0-2.71-.82-2.71-2.47v-24.43Z"/>
    <path class="cls-1" d="m171.51,20.92c1.08,0,1.62.42,1.62,1.25s-.54,1.25-1.62,1.25h-10.94v25.64c0,.98-.46,1.47-1.38,1.47s-1.38-.49-1.38-1.47v-25.64h-10.74c-1.11,0-1.66-.42-1.66-1.25.03-.83.58-1.25,1.66-1.25h24.43Z"/>
    <path class="cls-1" d="m6.86,20.36h9.75c2.57.03,4.68.74,6.31,2.14,1.63,1.43,2.45,3.3,2.45,5.62s-.76,4.37-2.29,5.93c-.38.38-.78.73-1.19,1.03.61.26,1.16.59,1.64.99,2.09,1.66,3.14,3.76,3.14,6.31s-.97,4.75-2.91,6.46c-1.53,1.35-3.72,2.03-6.58,2.03H6.86c-1.84-.03-2.75-.89-2.75-2.6v-25.31c0-1.73.92-2.6,2.75-2.6Zm-.23,13.57h9.98c1.94,0,3.4-.54,4.4-1.61,1.07-1.17,1.61-2.57,1.61-4.21,0-1.53-.5-2.75-1.49-3.67-1.07-.99-2.57-1.49-4.51-1.49H6.63v10.97Zm0,14.22h10.55c2.22,0,3.91-.54,5.09-1.61,1.12-.99,1.68-2.38,1.68-4.17-.03-1.76-.62-3.14-1.8-4.13-1.38-1.12-3.22-1.68-5.54-1.68H6.63v11.59Z"/>
    <circle class="cls-2" cx="35.96" cy="15.7" r="5.03"/>
    <rect class="cls-4" x="33.69" y="23.5" width="4.54" height="27.1" rx="2.27" ry="2.27"/>
    <path class="cls-1" d="m62.62,51.61c-8.83,0-16.01-7.18-16.01-16.01s7.18-16.01,16.01-16.01,16.01,7.18,16.01,16.01-7.18,16.01-16.01,16.01Zm0-29.43c-7.4,0-13.41,6.02-13.41,13.41s6.02,13.41,13.41,13.41,13.41-6.02,13.41-13.41-6.02-13.41-13.41-13.41Z"/>
  </g>
  <g id="_圖層_10" data-name="圖層 10">
    <g>
      <path class="cls-1" d="m10.87,64.95h-3.18v8.7h-1.32v-8.7h-3.19v-1.12h7.69v1.12Z"/>
      <path class="cls-1" d="m26.17,63.83v9.82h-1.33v-4.47h-5.3v4.47h-1.33v-9.82h1.33v4.38h5.3v-4.38h1.33Z"/>
      <path class="cls-1" d="m39.58,72.57v1.08h-6.06v-9.82h6.05v1.08h-4.72v3.26h3.82v1.04h-3.82v3.35h4.73Z"/>
      <path class="cls-1" d="m54.18,73.65h-1.18c-.24,0-.42-.09-.53-.28l-2.55-3.51c-.08-.11-.16-.19-.25-.24-.09-.05-.23-.07-.41-.07h-1.01v4.1h-1.32v-9.82h2.78c.62,0,1.16.06,1.61.19s.83.31,1.12.54c.29.24.51.52.65.86s.21.71.21,1.13c0,.35-.05.67-.16.97-.11.3-.27.57-.48.81-.21.24-.46.44-.76.61-.3.17-.64.3-1.02.38.17.1.32.24.44.42l2.86,3.9Zm-4.54-5.06c.38,0,.72-.05,1.02-.14.29-.09.54-.23.74-.4.2-.17.35-.38.45-.61.1-.24.15-.5.15-.79,0-.58-.19-1.03-.58-1.32-.38-.3-.96-.45-1.73-.45h-1.45v3.71h1.4Z"/>
      <path class="cls-1" d="m70.73,73.65h-1.03c-.12,0-.21-.03-.29-.09-.07-.06-.13-.13-.16-.23l-.92-2.37h-4.4l-.92,2.37c-.03.08-.08.16-.16.22-.08.06-.17.1-.29.1h-1.03l3.93-9.82h1.34l3.93,9.82Zm-2.77-3.64l-1.54-3.99c-.05-.12-.09-.26-.14-.41s-.1-.33-.14-.5c-.1.37-.19.68-.29.92l-1.54,3.99h3.67Z"/>
      <path class="cls-1" d="m80.97,63.83c.62,0,1.16.07,1.62.22.46.14.84.35,1.14.61.3.26.53.58.67.96s.22.79.22,1.25-.08.87-.24,1.25c-.16.38-.39.71-.7.98s-.69.49-1.14.64c-.45.15-.98.23-1.57.23h-1.58v3.67h-1.32v-9.82h2.9Zm0,5.09c.38,0,.71-.05,1-.15.29-.1.53-.24.73-.42.2-.18.35-.4.45-.65.1-.25.15-.53.15-.83,0-.63-.19-1.11-.58-1.47-.39-.35-.97-.53-1.76-.53h-1.58v4.04h1.58Z"/>
      <path class="cls-1" d="m98.04,72.57v1.08h-6.06v-9.82h6.05v1.08h-4.72v3.26h3.82v1.04h-3.82v3.35h4.73Z"/>
      <path class="cls-1" d="m109.3,72.72c.41,0,.77-.07,1.09-.21.32-.14.59-.34.81-.59.22-.25.39-.56.51-.91s.17-.74.17-1.17v-6.16h1.32v6.16c0,.58-.09,1.13-.27,1.63-.18.5-.44.93-.77,1.3-.34.37-.75.65-1.23.86-.48.21-1.03.31-1.63.31s-1.15-.1-1.63-.31c-.48-.21-.9-.49-1.23-.86s-.6-.8-.78-1.3c-.18-.5-.27-1.04-.27-1.63v-6.16h1.32v6.15c0,.42.06.81.18,1.17.12.35.28.66.51.91.22.25.49.45.82.6.32.14.69.22,1.09.22Z"/>
      <path class="cls-1" d="m128.24,64.95h-3.18v8.7h-1.32v-8.7h-3.19v-1.12h7.69v1.12Z"/>
      <path class="cls-1" d="m136.92,73.65h-1.33v-9.82h1.33v9.82Z"/>
      <g>
        <path class="cls-1" d="m151.76,71.32c.07,0,.14.03.19.09l.53.58c-.4.47-.89.84-1.46,1.1-.57.26-1.27.4-2.08.4-.7,0-1.34-.12-1.92-.37-.58-.25-1.07-.59-1.47-1.04-.41-.45-.72-.98-.95-1.6-.22-.62-.34-1.31-.34-2.06s.12-1.43.35-2.06.56-1.16.98-1.61c.42-.45.93-.8,1.52-1.04.59-.25,1.24-.37,1.95-.37s1.32.11,1.85.34c.53.23,1,.53,1.41.92l-.44.62s-.06.08-.11.11-.1.04-.17.04c-.08,0-.18-.04-.3-.14s-.27-.19-.47-.3c-.19-.11-.43-.21-.72-.3-.29-.09-.64-.14-1.06-.14-.51,0-.97.09-1.39.27-.42.18-.78.44-1.09.77-.3.34-.54.75-.71,1.23-.17.49-.25,1.03-.25,1.64s.09,1.17.26,1.66c.18.49.42.9.72,1.23.3.34.66.59,1.08.77.41.18.86.26,1.34.26.29,0,.56-.02.79-.05.24-.03.45-.09.65-.16s.38-.17.55-.28c.17-.11.34-.25.51-.41.08-.07.16-.1.23-.1Z"/>
        <path class="cls-1" d="m163.81,64.76c-.04.07-.09.12-.13.16s-.11.05-.17.05c-.08,0-.17-.04-.27-.12-.1-.08-.24-.16-.39-.26-.16-.09-.35-.18-.57-.26-.22-.08-.49-.12-.81-.12-.3,0-.56.04-.78.12-.23.08-.42.19-.57.33s-.27.3-.35.49c-.08.19-.12.39-.12.61,0,.28.07.51.2.69.13.18.31.34.53.47.22.13.47.24.75.34.28.09.57.19.86.29.29.1.58.22.86.34s.53.29.75.48c.22.19.4.43.53.71s.2.63.2,1.04c0,.43-.07.84-.22,1.22-.15.38-.36.71-.64.99-.28.28-.63.5-1.03.66-.41.16-.87.24-1.39.24-.64,0-1.22-.12-1.74-.35-.52-.23-.97-.55-1.34-.94l.38-.64c.04-.05.08-.09.13-.13s.11-.05.17-.05c.06,0,.13.02.2.07.08.05.16.11.26.18.1.07.21.15.33.24s.26.17.42.24c.16.07.34.13.54.18.2.05.43.07.68.07.32,0,.6-.04.84-.13.25-.09.45-.21.63-.37.17-.16.3-.35.39-.57.09-.22.14-.47.14-.74,0-.3-.07-.55-.2-.74s-.31-.35-.53-.48c-.22-.13-.47-.24-.75-.33-.28-.09-.57-.18-.86-.28-.29-.09-.58-.2-.86-.33s-.53-.29-.75-.48c-.22-.2-.4-.45-.53-.74-.13-.3-.2-.66-.2-1.1,0-.35.07-.69.2-1.02.13-.33.33-.62.59-.87s.58-.46.95-.61c.38-.15.81-.23,1.3-.23.55,0,1.05.09,1.5.26.45.18.85.43,1.19.76l-.32.64Z"/>
      </g>
    </g>
  </g>
</svg>