<?xml version="1.0" encoding="UTF-8"?>
<svg id="b" data-name="文字" xmlns="http://www.w3.org/2000/svg" xmlns:xlink="http://www.w3.org/1999/xlink" viewBox="0 0 197.22 24.26">
  <defs>
    <style>
      .e {
        fill: #fff;
      }

      .f {
        fill: url(#d);
      }

      .g {
        fill: #ec6d34;
      }

      .h {
        fill: url(#c);
      }
    </style>
    <linearGradient id="c" data-name="未命名漸層 8" x1="764.78" y1="-6434.39" x2="770.72" y2="-6434.39" gradientTransform="translate(-3817.92 -5218.3) rotate(136.88)" gradientUnits="userSpaceOnUse">
      <stop offset="0" stop-color="#ffe57a"/>
      <stop offset=".07" stop-color="#fcd671"/>
      <stop offset=".26" stop-color="#f6b05b"/>
      <stop offset=".45" stop-color="#f2934a"/>
      <stop offset=".64" stop-color="#ee7d3d"/>
      <stop offset=".83" stop-color="#ec7136"/>
      <stop offset="1" stop-color="#ec6d34"/>
    </linearGradient>
    <linearGradient id="d" data-name="未命名漸層 3" x1="9210.25" y1="-18384.26" x2="9220.84" y2="-18384.26" gradientTransform="translate(9250.83 -18369.26) rotate(-180)" gradientUnits="userSpaceOnUse">
      <stop offset="0" stop-color="#ffe57a"/>
      <stop offset=".01" stop-color="#fee077"/>
      <stop offset=".14" stop-color="#f8bd62"/>
      <stop offset=".28" stop-color="#f4a051"/>
      <stop offset=".43" stop-color="#f08944"/>
      <stop offset=".58" stop-color="#ed793b"/>
      <stop offset=".76" stop-color="#ec6f35"/>
      <stop offset="1" stop-color="#ec6d34"/>
    </linearGradient>
  </defs>
  <path class="e" d="M114.49,9.18c.19-.01,.34,.03,.44,.14,.11,.11,.17,.25,.17,.44,0,.16-.06,.3-.17,.42-.1,.12-.24,.18-.44,.18h-6.33c-.19-.01-.35-.07-.46-.16-.11-.12-.17-.27-.17-.44,.01-.17,.07-.31,.17-.42,.12-.11,.28-.16,.46-.16h6.33Zm-4.95,14.87c-.53-.03-.91-.17-1.14-.44-.24-.29-.35-.62-.33-1v-3.56c0-.42,.14-.76,.42-1.02,.28-.28,.63-.42,1.06-.42h3.25c.46-.01,.82,.12,1.08,.4,.26,.27,.4,.61,.42,1.04v3.56c0,.4-.14,.74-.42,1.02-.28,.28-.64,.42-1.08,.42h-3.25Zm3.95-17.66c.19-.01,.34,.03,.44,.14,.11,.11,.17,.25,.17,.44,0,.16-.06,.3-.17,.42-.1,.12-.24,.18-.44,.18h-4.58c-.19-.01-.35-.07-.46-.16-.11-.12-.17-.27-.17-.44,.01-.17,.07-.31,.17-.42,.13-.11,.28-.16,.46-.16h4.58Zm0,5.57c.19-.01,.34,.03,.44,.14,.11,.11,.17,.25,.17,.44,0,.16-.06,.3-.17,.42-.1,.12-.24,.18-.44,.18h-4.49c-.19-.01-.35-.07-.46-.16-.11-.12-.17-.27-.17-.44,.01-.17,.07-.31,.17-.42,.12-.11,.28-.16,.46-.16h4.49Zm0,2.79c.19-.01,.34,.03,.44,.14,.11,.11,.17,.25,.17,.44,0,.16-.06,.3-.17,.42-.1,.12-.24,.18-.44,.18h-4.49c-.19-.01-.35-.07-.46-.16-.11-.12-.17-.27-.17-.44,.01-.17,.07-.31,.17-.42,.12-.11,.28-.16,.46-.16h4.49Zm-3.54,4.04c-.22-.03-.39,.03-.5,.18-.11,.11-.17,.26-.17,.46v2.69c.01,.24,.07,.43,.17,.58,.1,.12,.26,.18,.5,.18h2.33c.24-.03,.42-.09,.56-.2,.12-.15,.19-.33,.21-.56v-2.69c0-.17-.06-.33-.19-.46-.11-.12-.31-.18-.58-.18h-2.33Zm8.01-6.91V7.68h-2.23c-.22-.01-.4-.07-.52-.17l-.17-.4c.03-.18,.09-.31,.19-.4,.14-.1,.3-.15,.5-.15h6.78c.47-.03,.86,.11,1.16,.4,.29,.27,.44,.57,.46,.9,.19,8.46,.42,13.06,.69,13.82,.15,.33,.28,.51,.38,.54,.32-.04,.59-1.03,.81-2.98,0-.21,.07-.36,.21-.46,.14-.09,.28-.13,.44-.13,.18,.01,.32,.08,.42,.19,.14,.13,.19,.28,.17,.46-.31,2.4-.69,3.84-1.14,4.33-.22,.21-.46,.3-.71,.29h-.1c-.87-.17-1.43-.84-1.66-2.02-.33-1.09-.58-5.56-.73-13.4,.01-.24-.06-.43-.21-.56-.18-.17-.4-.25-.65-.25h-2.85v4.2c-.01,.91-.06,1.71-.15,2.39v.21c1.08-.39,1.93-.72,2.54-1.02,.18-.09,.35-.12,.5-.08,.15,.05,.26,.15,.33,.29,.08,.15,.1,.3,.06,.44-.13,.31-1.14,.78-3.06,1.42l-.54,.19c-.42,2.9-1.33,5.35-2.75,7.35-.5,.58-.89,.87-1.16,.87-.15-.03-.29-.09-.42-.19-.21-.31-.17-.59,.1-.85,1.28-1.21,2.26-3.48,2.96-6.81-1.96,.49-3.05,.68-3.29,.58-.15-.08-.24-.2-.27-.37-.03-.17-.01-.31,.04-.44,.1-.13,.24-.2,.42-.23,1.1-.22,2.19-.47,3.29-.77l.17-2.98Z"/>
  <path class="e" d="M132.83,7.5h-.52c-.18-.01-.32-.06-.43-.16-.1-.12-.16-.26-.16-.43,.01-.17,.06-.3,.16-.41,.12-.1,.26-.16,.43-.16h6.05c.18-.01,.32,.03,.41,.14,.1,.1,.16,.25,.16,.43,0,.16-.05,.29-.16,.41-.09,.12-.23,.17-.41,.17h-.74v15.93c0,.18-.06,.33-.17,.44-.09,.09-.23,.15-.41,.17-.16-.01-.29-.06-.41-.15-.1-.13-.15-.28-.15-.47v-2.95c-2.68,1.15-4.19,1.65-4.54,1.51-.12-.06-.21-.18-.27-.35-.03-.16-.01-.3,.04-.43,.06-.16,.44-.34,1.12-.54V7.5Zm3.64,3.04v-3.04h-2.5v3.04h2.5Zm0,4.42v-3.28h-2.5v3.28h2.5Zm0,4.24v-3.1h-2.5v4.17l.54-.21,1.96-.85Zm1.94-4.13c-.18,.01-.33-.01-.44-.08-.13-.08-.21-.2-.23-.37-.03-.21,0-.36,.1-.47,.09-.14,.24-.22,.45-.23l.64-.06,1.4-1.98c-.68-.85-1.45-1.63-2.29-2.35-.15-.14-.25-.28-.29-.41-.03-.16,0-.3,.1-.43,.1-.14,.23-.23,.37-.25,.26-.02,.54,.14,.83,.49,.49-.9,.94-1.91,1.36-3,.1-.17,.23-.28,.37-.33,.14-.05,.28-.04,.43,.04,.14,.07,.24,.17,.29,.31,.1,.28-.45,1.53-1.65,3.74l1.1,1.2c.44-.83,.82-1.68,1.14-2.56,.06-.19,.16-.32,.29-.39,.13-.08,.28-.08,.45-.02,.15,.04,.26,.13,.33,.27l.04,.27c-.57,1.64-1.49,3.37-2.77,5.19l2-.23c-.3-.74-.44-1.16-.43-1.26,.05-.15,.14-.26,.27-.33,.15-.09,.3-.1,.44-.04,.17,.03,.28,.13,.35,.31,.77,1.59,1.1,2.58,.99,2.96-.07,.12-.17,.21-.33,.27-.16,.04-.3,.03-.45-.02-.17-.1-.31-.37-.43-.81l-4.42,.54Zm2,5.64c-.7-.08-1.18-.36-1.45-.85-.15-.39-.23-.8-.23-1.24v-2.33c.01-.21,.06-.36,.15-.47,.1-.1,.24-.16,.41-.17,.17,0,.3,.05,.41,.16,.12,.1,.17,.26,.17,.48v1.8c-.01,.59,.05,.98,.17,1.16,.31,.27,.98,.3,2.02,.08v-3.66c.01-.21,.07-.36,.16-.47,.1-.1,.24-.16,.41-.17,.17,0,.3,.05,.41,.15,.12,.1,.18,.27,.19,.49v4.01l-.14,1.07c-.26,1.24-1.26,2.26-3,3.06-.61,.22-.99,.28-1.14,.17-.12-.07-.21-.18-.27-.35-.03-.16,0-.3,.06-.43,.1-.15,.24-.25,.41-.27l.52-.19c1.28-.56,2.05-1.29,2.31-2.21-.57,.12-1.08,.17-1.55,.17Zm4.21-6.18c-.18,.01-.33-.01-.45-.08-.13-.08-.21-.2-.23-.37-.03-.21,0-.36,.1-.47,.09-.13,.24-.22,.44-.27h.41l1.22-1.55c-.67-.77-1.43-1.5-2.27-2.17l-.29-.39c-.01-.16,.01-.3,.08-.43,.12-.14,.24-.23,.37-.25,.21-.04,.5,.12,.87,.47,.5-.9,.98-1.89,1.43-2.95,.1-.18,.22-.28,.35-.31,.15-.05,.3-.04,.44,.04s.24,.19,.29,.33c.07,.35-.5,1.55-1.71,3.6l1.07,1.12c.54-.87,1-1.79,1.38-2.77,.08-.19,.18-.32,.31-.37,.13-.08,.28-.08,.44-.02,.16,.05,.26,.15,.33,.29l.04,.14c-.21,1.18-1.14,2.85-2.81,5.02l2.05-.23c-.23-.74-.32-1.16-.27-1.26,.07-.14,.16-.24,.29-.29,.17-.08,.32-.08,.45-.02,.16,.05,.26,.17,.31,.35,.65,1.81,.88,2.85,.7,3.12-.08,.13-.19,.21-.35,.25-.17,.01-.31-.01-.43-.08l-.39-.97-4.19,.5Zm2.87,5.08c.3-.01,.5-.09,.6-.23,.12-.15,.17-.34,.17-.54v-2.77c.01-.21,.06-.36,.15-.47,.1-.1,.24-.16,.41-.17,.17,0,.3,.05,.41,.16,.12,.1,.17,.26,.17,.48v3.1c0,.41-.12,.77-.35,1.09-.27,.34-.69,.5-1.26,.5h-1.8v2.68c0,.18-.06,.33-.17,.44-.09,.09-.23,.15-.41,.17-.15-.01-.29-.06-.41-.15-.1-.13-.16-.28-.16-.47v-7.83c0-.19,.05-.34,.14-.43,.12-.1,.26-.15,.43-.15s.3,.05,.41,.15c.12,.1,.17,.25,.17,.43v4.01h1.49Z"/>
  <path class="e" d="M163.99,17.09h-6.31c-.19-.01-.33-.07-.44-.16-.11-.12-.16-.26-.16-.44,.01-.17,.07-.31,.16-.41,.12-.11,.26-.16,.44-.16h6.31v-5.08h-5.54c-.69,1.67-1.42,2.96-2.2,3.86-.14,.17-.31,.27-.49,.3-.13,.01-.27-.05-.41-.2-.13-.17-.19-.32-.18-.45,.01-.14,.1-.31,.28-.49,1.57-1.91,2.48-4.19,2.75-6.82,.04-.21,.11-.36,.22-.46,.1-.1,.24-.14,.41-.12,.19,.01,.32,.07,.41,.18,.2,.29,.06,1.31-.41,3.05h5.16v-3.07c0-.2,.05-.34,.14-.44,.12-.11,.26-.16,.43-.16s.31,.05,.42,.16c.12,.11,.18,.25,.18,.44v3.07h7.08c.18-.01,.32,.03,.41,.14,.11,.11,.16,.25,.16,.44,0,.16-.05,.3-.16,.41-.09,.12-.23,.18-.41,.18h-7.08v5.08h6.53c.18-.01,.32,.03,.41,.14,.11,.11,.16,.25,.16,.43,0,.16-.05,.3-.16,.42-.09,.12-.23,.18-.41,.18h-6.53v5.79h7.68c.19-.01,.32,.03,.42,.14,.1,.11,.16,.25,.16,.43,0,.16-.05,.3-.16,.42-.09,.12-.23,.18-.42,.18h-16.32c-.19-.01-.33-.07-.44-.16-.11-.12-.16-.26-.16-.44,.01-.17,.07-.31,.16-.41,.12-.11,.26-.16,.44-.16h7.48v-5.79Z"/>
  <path class="e" d="M181.49,10.85h-2.26c-.18-.01-.32-.06-.42-.15-.1-.11-.15-.25-.15-.42,.01-.16,.06-.3,.15-.4,.11-.1,.25-.15,.42-.15h2.26v-3.17c.01-.2,.06-.35,.15-.46,.1-.1,.23-.16,.4-.17,.16,0,.3,.05,.4,.15,.11,.1,.17,.26,.17,.47v3.17h1.94c.18-.01,.31,.03,.4,.13,.1,.1,.15,.24,.15,.42,0,.15-.05,.28-.15,.4-.09,.11-.22,.17-.4,.17h-1.94v4.54c.78-.44,1.39-.83,1.82-1.16,.14-.11,.28-.16,.42-.13,.15,.03,.27,.11,.36,.25,.1,.13,.14,.27,.11,.42v.02c-.08,.24-.98,.87-2.72,1.88v4.99c0,.76-.13,1.34-.38,1.75-.13,.2-.32,.34-.57,.42-.48,.16-1.29,.1-2.43-.19-.18-.09-.3-.2-.36-.32-.05-.15-.05-.3,0-.44,.16-.3,.43-.4,.8-.29,.68,.19,1.17,.24,1.46,.13,.11-.03,.2-.12,.25-.28,.08-.2,.11-.48,.11-.84v-4.39c-1.47,.66-2.3,.96-2.49,.89-.14-.08-.24-.18-.3-.32-.06-.18-.07-.33-.02-.46,.05-.14,.16-.23,.32-.28l2.49-1.04v-5.15Zm7.22,11.39c-1.48,.82-2.92,1.42-4.31,1.78-.15,.04-.3,.03-.44-.04-.11-.09-.2-.2-.27-.34-.04-.18-.03-.33,.04-.46,.06-.11,.18-.2,.34-.25,2.2-.67,4.08-1.53,5.62-2.58-.62-.63-1.25-1.37-1.9-2.22-1.46-2.14-2.12-3.37-1.99-3.7l.28-.32c.16-.06,.31-.08,.44-.04,.14,.06,.25,.18,.34,.36,1.04,2.09,2.27,3.83,3.7,5.24,1.05-.87,1.93-1.92,2.64-3.15,.85-1.57,1.18-2.58,.99-3.02-.09-.15-.22-.23-.4-.23h-8.11c-.18-.01-.32-.07-.42-.17-.1-.13-.15-.26-.15-.4,.01-.19,.06-.33,.15-.42,.11-.09,.25-.13,.42-.13h4.08v-2.91h-4.84c-.18-.01-.32-.06-.42-.15-.1-.11-.15-.25-.15-.42,.01-.16,.06-.3,.15-.4,.11-.1,.25-.15,.42-.15h4.84v-1.65c0-.19,.04-.33,.13-.42,.11-.1,.25-.15,.42-.15s.3,.05,.4,.15c.11,.1,.17,.24,.17,.42v1.65h4.82c.18-.01,.31,.03,.4,.13,.1,.1,.15,.24,.15,.42,0,.15-.05,.28-.15,.4-.09,.11-.22,.17-.4,.17h-4.82v2.91h2.98c.68,0,1.13,.16,1.35,.49,.22,.32,.27,.75,.17,1.31-.36,2.11-1.68,4.25-3.99,6.42,1.62,1.2,3.26,1.99,4.92,2.37,.2,.06,.35,.16,.44,.3,.06,.15,.08,.3,.04,.46-.06,.18-.16,.3-.3,.36-.14,.08-.3,.09-.49,.04-.68-.19-1.63-.58-2.83-1.16-1.01-.52-1.89-1.08-2.64-1.67-.57,.4-1.18,.79-1.82,1.16Z"/>
  <path class="e" d="M63.28,22.96c0,.46-.13,.72-.39,.78-.31,.09-.58,.09-.81,0-.26-.09-.55-.35-.86-.78l-10.71-13.66v13.66c0,.58-.3,.87-.89,.87s-.89-.29-.84-.87V7.08c-.03-.49,.11-.78,.44-.87,.31-.06,.58-.04,.81,.07,.21,.13,.48,.4,.81,.8l10.66,13.62V7.08c0-.59,.3-.89,.89-.89,.59,.01,.89,.31,.89,.89v15.87Z"/>
  <path class="e" d="M66.91,7.82c0-.97,.53-1.45,1.6-1.45h11.45c.71-.01,1.03,.15,1.03,.72,0,.49-.34,.74-1.03,.74h-11.45v6.3h10.66c.64,0,.96,.24,.96,.72s-.32,.74-.96,.74h-10.66v6.58h11.45c.67,.01,1,.27,1,.76,0,.52-.33,.78-1,.78h-11.45c-1.07,0-1.6-.48-1.6-1.46V7.82Z"/>
  <path class="e" d="M99.56,6.34c.64,0,.96,.25,.96,.74s-.32,.74-.96,.74h-6.46v15.14c0,.58-.27,.87-.81,.87s-.81-.29-.81-.87V7.82h-6.34c-.65,0-.98-.25-.98-.74,.02-.49,.34-.74,.98-.74h14.42Z"/>
  <path class="e" d="M2.37,6.01h5.76c1.52,.02,2.76,.44,3.72,1.26,.96,.84,1.44,1.95,1.44,3.32s-.45,2.58-1.35,3.5c-.23,.23-.46,.43-.7,.61,.36,.15,.68,.35,.97,.59,1.23,.98,1.85,2.22,1.85,3.72s-.57,2.81-1.72,3.81c-.9,.8-2.2,1.2-3.88,1.2H2.37c-1.08-.01-1.63-.53-1.63-1.53V7.55c0-1.02,.54-1.53,1.63-1.53Zm-.14,8.01h5.89c1.14,0,2.01-.32,2.6-.95,.63-.69,.95-1.52,.95-2.48,0-.9-.29-1.63-.88-2.17-.63-.59-1.52-.88-2.66-.88H2.23v6.48Zm0,8.4h6.23c1.31,0,2.31-.32,3-.95,.66-.59,.99-1.41,.99-2.46-.02-1.04-.37-1.85-1.06-2.44-.81-.66-1.9-.99-3.27-.99H2.23v6.84Z"/>
  <g>
    <circle class="h" cx="19.54" cy="3.26" r="2.97"/>
    <rect class="g" x="18.2" y="7.86" width="2.68" height="16" rx="1.34" ry="1.34"/>
  </g>
  <path class="e" d="M35.28,24.46c-5.21,0-9.45-4.24-9.45-9.45s4.24-9.45,9.45-9.45,9.45,4.24,9.45,9.45-4.24,9.45-9.45,9.45Zm0-17.37c-4.37,0-7.92,3.55-7.92,7.92s3.55,7.92,7.92,7.92,7.92-3.55,7.92-7.92-3.55-7.92-7.92-7.92Z"/>
  <path class="f" d="M30.64,14.91c3.86-1.01,2.23-4.97,4.97-4.97,1.05,0,2.02,.32,2.82,.88,.88,.61,1.55,1.49,1.89,2.52,.16,.49,.25,1.02,.25,1.57,0,.94-.26,1.82-.71,2.57s-.98,1.34-1.71,1.76-1.75,.76-2.65,.82c-1.26,.09-2.81-.4-3.87-1.22-1.11-.85-2.47-3.54-1-3.93Z"/>
</svg>