<?xml version="1.0" encoding="utf-8"?>
<!-- Generator: Adobe Illustrator 24.3.0, SVG Export Plug-In . SVG Version: 6.00 Build 0)  -->
<svg version="1.1" id="圖層_1" xmlns="http://www.w3.org/2000/svg" xmlns:xlink="http://www.w3.org/1999/xlink" x="0px" y="0px"
	 viewBox="0 0 144 68" style="enable-background:new 0 0 144 68;" xml:space="preserve">
<style type="text/css">
	.st0{fill:#FFC629;}
	.st1{fill:#00A0DF;}
	.st2{fill:#00BBB4;}
	.st3{fill:#FF8189;}
</style>
<g>
	<path class="st0" d="M9.6,26.7c0,0.1-0.1,0.1-0.1,0.2C9.6,26.8,9.6,26.8,9.6,26.7C9.6,26.8,9.6,26.7,9.6,26.7"/>
	<path class="st1" d="M110,55.3c-0.4-0.7-0.8-1.7-1.2-2.9l-2.3-6.2c0,0,0,0,0,0l-1.5-3.9c0,0-0.1-0.1-0.1-0.3l-0.3-0.9
		c-0.8-1.4-2.2-1.4-2.2-1.4h-0.6h-2.4c0,0-1.3,3.8-2.2,6.2l0,0c0,0.1-0.1,0.2-0.1,0.3l-2.3,6L93.5,55c0,0.1-0.1,0.2-0.1,0.2
		c0,0,0,0,0,0l-0.1,0.2h3.2l1.4-3.9l0.1-0.3h0l0-0.1l0,0h0l0.7-2.1h0l0.9-2.6c0-0.1,0-0.1,0.1-0.2l0,0l1.5-4.3h0.3h0.1h0.3l1.5,4.3
		l0,0c0,0.1,0,0.1,0.1,0.2l0.9,2.6h-4l-0.6,1.7h5.1l0.6,1.5l1.2,3.1h2.1h1V55.3C109.9,55.3,109.9,55.3,110,55.3"/>
	<path class="st1" d="M89.9,47.7L89.9,47.7l-5.7,0c-0.1,0-0.2,0-0.3,0l-0.6,1.6c0.2,0,0.3,0.1,0.5,0.1h4.4v1c0,3.2-2.4,3.5-4.6,3.5
		c-3,0-4.6-1.2-4.6-3.7v-4.8c0-2.5,1.5-3.7,4.5-3.7h0h0.1h5l0.4-0.7l0.5-1v-0.1h-5.9v0c0,0-0.1,0-0.1,0c-2.8,0-7.5,0.7-7.5,5.1v5.4
		c0,4.5,4.7,5.1,7.5,5.1c3.4,0,7.5-0.9,7.5-4.9v-1.2C91.1,47.9,89.9,47.7,89.9,47.7"/>
	<path class="st1" d="M71.4,47.7L71.4,47.7l-4.2,0L66,49.3h3.6v1c0,3.2-2.4,3.5-4.6,3.5c-3,0-4.6-1.2-4.6-3.7v-4.8
		c0-2.5,1.5-3.7,4.5-3.7h0h0.1h5l0.4-0.7l0.5-1v-0.1h-5.9v0c0,0-0.1,0-0.1,0c-2.8,0-7.5,0.7-7.5,5.1v5.4c0,4.5,4.7,5.1,7.5,5.1
		c3.4,0,7.5-0.9,7.5-4.9v-1.2C72.6,47.9,71.4,47.7,71.4,47.7"/>
	<rect x="71.3" y="17.4" class="st1" width="2" height="12.7"/>
	<path class="st1" d="M75.1,32.2c0,0.4-0.2,0.9-0.7,0.9l-2.2,0.4l0.4,1.2h2.7c0.6,0,0.8-0.2,1.1-0.5C76.8,34,77,33.5,77,33V16h-1.9
		V32.2z"/>
	<path class="st1" d="M112.9,27.7h6.8v-1.5h-6.8v-5h7.4v-1.4h-7.4v-3.7h-2.2v3.7h-3.8c0.4-0.9,0.8-1.8,1.1-2.8l0.1-0.3l-2.2-0.4
		l-0.1,0.2c-1.1,3.7-2.3,6.1-4,8.1l-0.2,0.2l1.2,0.6l0.1-0.1c0.2-0.2,0.4-0.4,0.6-0.6c0.9-0.9,2-1.9,2.7-3.5h4.5v5h-7.2v1.5h7.2V33
		h-8.3v1.5h18.7V33h-8.2V27.7z"/>
	<path class="st1" d="M129.9,25.7l-0.4-2c0,0-0.8,0.7-1.8,1.3v-3.8h1.9V20h-1.9v-4.1h-2.1V20h-2.5v1.2h2.5l0,4.7
		c-0.8,0.6-2.2,1-2.8,1.3l-0.2,0.1l0.3,1.1l0.2,0c0.9-0.2,1.8-0.6,2.5-0.8v4.8c0,0.3-0.2,0.9-0.6,0.9l-2,0.3l0.3,1.2h2.5
		c0.5,0,1-0.2,1.3-0.5c0.4-0.3,0.6-0.8,0.6-1.3v-6.2c1-0.4,1.6-0.7,2-0.9L129.9,25.7z"/>
	<path class="st1" d="M142.5,20.6v-1.4h-5.4v-3.3H135v3.3h-4.6v1.4h4.6v2.9h-4.6V25h0.8c0.7,2.4,1.9,3.7,3.6,5.2
		c-0.8,0.9-3.3,2.4-5.2,3l-0.3,0.1l0.4,1.1l0.2-0.1c2.5-0.8,4.7-1.8,6.4-3.1c2.1,1.6,4.1,2.7,5.8,3.3l0.4,0.1l-0.2-1.5l-0.2,0
		c-1.3-0.4-3.3-1.8-4.4-2.9c0.8-0.8,1.6-1.3,2.3-2.4c0.8-1.2,1.2-2.6,1.4-4l0-0.4h-4.3v-2.9H142.5z M139,25c-0.6,2-1.6,3.1-2.8,4.3
		c-1.6-1.5-2.9-2.7-3.4-4.3H139z"/>
	<path class="st1" d="M82.7,20.3l0.1,0.3l1.6-1.3l-0.1-0.2c-0.6-1.4-1.8-2.3-3-3l-0.2-0.1l-0.6,0.7l0.1,0.1
		C81.5,17.8,82.1,18.7,82.7,20.3"/>
	<path class="st1" d="M91,29.5l-1.9-0.7L89,28.9c-0.8,1.9-1.5,3.3-2.8,4.5L86,33.5l0.7,0.7l0.1-0.1c0.6-0.4,1.3-1.1,2.1-2
		c0.8-0.9,1.5-1.8,1.8-2.4L91,29.5z"/>
	<path class="st1" d="M98.3,20.3h-4.8l0.7-2.3h5.1v-1.2H87.6V18H92l-0.5,2.3h-3.5V28h4v4.6c0,0.1-0.1,0.3-0.2,0.3
		c-0.1,0.1-0.3,0.2-0.4,0.2l-2,0.4l0.2,1.2h2.5c0.5,0,1-0.2,1.4-0.5c0.4-0.3,0.6-0.7,0.6-1.2v-5h4.1V20.3z M96.3,22.7v0.6v1.3v0.9
		v1.1h-6.2v-1.9H95v-1.3h-4.9v-1.8h6.2V22.7z"/>
	<path class="st1" d="M87,16.8h-2v6.8c0,3.9-0.8,7.3-2.4,10.1l-0.1,0.2l1,0.8l0.3-0.4c0.8-1,1.7-2.3,2.3-4.3
		c0.6-2.3,0.9-4.5,0.9-6.7v-4.4v-0.2V18V16.8z"/>
	<path class="st1" d="M95.9,29.3l-0.3-0.2l-1,0.5l0.3,0.2c0.5,0.5,2.4,2.7,3.2,4.2l0.2,0.4l1-2.1l-0.1-0.1
		C98.1,30.6,96.5,29.6,95.9,29.3"/>
	<path class="st1" d="M84.2,23L84.2,23l0-0.2l0-0.2l0,0v-0.7H80V23h2.3c-0.1,6.7-1.7,9-2.6,10.2l-0.3,0.5l1,0.3l0.1-0.1
		c1.4-1.4,2.4-3.1,3.3-6.8C84.1,25.7,84.2,23.7,84.2,23"/>
	<path class="st1" d="M61.5,28.4h8.2V22h-7.4v1.1h5.4v0.7v0.8v1.1v0.4v1.2h-6c0-0.6,0.1-1.1,0.1-1.6v-0.1h0.6h4.2v-1.1h-4.2h-0.6
		v-0.8v-0.7V22h-2v3.3c0,3.1-0.2,6.5-1.8,8.6L57.8,34l0.8,0.7l0.2-0.2c1.1-1.2,1.9-2.7,2.3-4.5v4.9H63v-0.7h5.3v0.7h1.9v-5.6h-8.9
		C61.4,29,61.4,28.7,61.5,28.4 M63,30.5h5.3v2.6H63V30.5z"/>
	<path class="st1" d="M58.5,22.6c1.1-0.5,2.2-1.2,3.4-2.1v0.3h5.8v-0.5c0.7,0.5,1.5,1,2.3,1.5l0.2,0.1l0.8-1.2l-0.2-0.1
		c-0.9-0.5-1.5-1.1-2.2-1.8c-0.3-0.3-0.5-0.5-0.8-0.7c-0.9-0.7-1.5-1.4-1.8-1.9L65.9,16h-2.3l-0.1,0.1c-0.1,0.2-0.2,0.3-0.3,0.5
		c-0.5,0.8-1,1.6-1.9,2.4c-0.3,0.2-0.6,0.5-0.9,0.7c-0.8,0.7-1.5,1.3-2.3,1.8L58,21.6l0.3,1.1L58.5,22.6z M64.8,17.6
		c0.6,0.7,1.3,1.4,2,2.1h-4C63.7,19,64.3,18.3,64.8,17.6"/>
	<path class="st2" d="M15.1,16.2c1.9,0,3.4-1.5,3.4-3.4c0-1.9-1.5-3.4-3.4-3.4c-1.9,0-3.4,1.5-3.4,3.4
		C11.8,14.7,13.3,16.2,15.1,16.2"/>
	<path class="st2" d="M1.5,11.8c0.6,4.9,4.4,8.5,10.4,12.1c1.7,1,3.6,2,5.6,3.1c1.2,0.6,2.4,1.2,3.6,1.8c0.9,0.4,1.8,0.9,2.7,1.4
		c-1.5,0.7-3.4,1.2-5.6,1.4c0.2,1.1,0.5,2.1,0.8,3c2.6-0.3,5.3-1,7.8-2.7c1.3,0.8,2.6,1.7,3.7,2.7c-1.6,1.5-4.6,3.3-9.8,3.5
		c0.6,1,1.4,2,2.2,2.9c3.7-0.5,7.2-1.9,9.4-4.8c3.2,3.5,4.9,8,4.4,14.4c5.7-11.1,0.9-20-10.4-26.5c-0.7-0.4-1.4-0.8-2.2-1.1
		c-2.6-1.2-5.4-2-8.1-2.7C10.4,18.5,5,16.9,1.5,11.8"/>
	<path class="st0" d="M14.3,40.8c-2.3-2.1-3.7-4.3-4.6-6.4c-0.6-1.4-1-3-0.9-4.6c0-1.1,0.3-2.1,0.8-2.9c-6,8.9-1.6,19.2,10.5,26.4
		c11.5,6.8,19.4,4.9,24.3,13.5c-0.3-8.4-8-12.6-19.1-17.9c-4.4-2.1-8.1-4.8-10.8-7.9l0,0C14.4,40.9,14.3,40.9,14.3,40.8"/>
	<path class="st3" d="M33.7,10.6c2.6,0,4.7-2.1,4.7-4.7c0-2.6-2.1-4.7-4.7-4.7c-2.6,0-4.7,2.1-4.7,4.7C29,8.5,31.1,10.6,33.7,10.6"
		/>
	<path class="st3" d="M12.6,37.4c-0.3-1-0.3-2.1-0.1-3c1.7,0.3,4,0.4,6.5,0.2c-0.3-1-0.6-2-0.8-3c-1.4,0.1-3,0.1-4.6-0.1
		c0.1-0.1,0.1-0.2,0.2-0.3c1-1.5,2.2-2.9,3.7-4.2c-2-1-3.9-2-5.6-3.1c-0.7,0.8-1.4,1.6-2,2.5c-0.1,0.1-0.2,0.2-0.3,0.4c0,0,0,0,0,0
		c0,0-0.1,0.1-0.1,0.1c0,0,0,0,0,0c0,0,0,0,0,0c-0.5,0.7-0.7,1.7-0.8,2.9c-0.1,1.6,0.3,3.2,0.9,4.6c0.9,2.1,2.3,4.3,4.6,6.4
		c0.1,0.1,0.1,0.1,0.1,0.1l0,0l0.1,0v0c0,0,0,0,0.1,0l0.3,0c0,0,0,0,0,0c2.4,0.2,5.3,0.3,8-0.1C22,40,21.3,39,20.7,38
		C18.4,38.1,15.7,37.9,12.6,37.4"/>
	<path class="st3" d="M49.9,2.6c-4.6,10.7-15.3,8.7-28.3,14.3c-2,0.9-3.8,1.9-5.5,3.2c2.7,0.8,5.5,1.6,8.1,2.7
		c1.9-0.9,4.1-1.6,6.4-2.2C47.1,16.5,50.8,7.4,49.9,2.6"/>
</g>
</svg>
