<?xml version="1.0" encoding="UTF-8"?>
<svg id="b" data-name="文字" xmlns="http://www.w3.org/2000/svg" viewBox="0 0 133.24 48.33">
  <defs>
    <style>
      .c {
        fill: #fff;
      }
    </style>
  </defs>
  <g>
    <path class="c" d="M91.53,42.97c-.39-.65-.76-1.64-1.21-2.84l-2.29-6.06s0-.02-.01-.03l-1.46-3.85s-.07-.12-.1-.26l-.32-.84c-.73-1.34-2.12-1.35-2.12-1.35h-2.98s-1.29,3.67-2.12,6.04h.01c-.04,.1-.08,.19-.12,.29l-2.2,5.83-1.17,2.83c-.04,.08-.08,.17-.12,.24,0,0,.02,0,.03,0l-.1,.24h3.16l1.4-3.82,.1-.26h0l.03-.08v-.02s0,0,0,0l.69-2.01h0l.9-2.57c.02-.05,.04-.1,.06-.15h0s1.51-4.14,1.51-4.14h.68l1.51,4.15-.02-.03c.02,.06,.04,.11,.07,.17l.89,2.57h-3.87l-.55,1.62h4.97l.56,1.49,1.17,2.98h3.05l-.04-.13s.03,0,.04,0"/>
    <path class="c" d="M71.93,35.56h0s-5.54,0-5.54,0c-.1,0-.18,0-.28,0l-.62,1.54c.15,.03,.29,.07,.46,.07h4.34v.95c0,3.14-2.29,3.41-4.44,3.41-2.95,0-4.44-1.22-4.44-3.62v-4.67c0-2.41,1.44-3.59,4.42-3.6h5.02l.4-.73,.5-.93v-.05h-5.78s-.07,0-.11,0c-2.71,0-7.27,.65-7.27,5.01v5.28c0,4.36,4.56,5,7.27,5,3.32,0,7.27-.83,7.27-4.79v-1.22c0-1.46-1.19-1.64-1.19-1.64"/>
    <path class="c" d="M53.89,35.56h0s-4.1,0-4.1,0l-1.09,1.6h3.56v.95c0,3.14-2.29,3.41-4.44,3.41-2.94,0-4.44-1.22-4.44-3.62v-4.67c0-2.41,1.45-3.59,4.42-3.6h5.03l.39-.73,.5-.93v-.05h-5.78s-.07,0-.11,0c-2.72,0-7.27,.65-7.27,5.01v5.28c0,4.36,4.56,5,7.27,5,3.32,0,7.27-.83,7.27-4.79v-1.22c0-1.46-1.19-1.64-1.19-1.64"/>
  </g>
  <g>
    <path class="c" d="M100.17,13.33h7.18v-1.59h-7.18V6.5h7.79v-1.52h-7.79V1.08h-2.33v3.89h-4.05c.42-.93,.81-1.92,1.15-2.92l.11-.31-2.29-.43-.07,.25c-1.15,3.93-2.43,6.49-4.27,8.54l-.24,.26,1.22,.69,.15-.16c.21-.22,.44-.43,.66-.65,.97-.93,2.07-1.98,2.89-3.75h4.74v5.25h-7.6v1.59h7.6v5.64h-8.79v1.53h19.8v-1.53h-8.68v-5.64Z"/>
    <g>
      <path class="c" d="M119.93,11.22l-.44-2.13s-.82,.79-1.89,1.41V6.48h2.04v-1.29h-2.04V.9h-2.19V5.19h-2.66v1.29h2.66v5.02c-.86,.65-2.28,1.08-3.01,1.35l-.24,.09,.33,1.18,.25-.05c.93-.19,1.95-.6,2.67-.89v5.1c0,.32-.18,.92-.61,.92l-2.13,.31,.29,1.24h2.65c.55,0,1.03-.17,1.4-.51,.39-.35,.59-.8,.59-1.36v-6.56c1.01-.41,1.74-.75,2.16-1l.17-.1Z"/>
      <path class="c" d="M133.24,5.8v-1.43h-5.74V.84h-2.24v3.53h-4.88v1.43h4.88v3.09h-4.88v1.64h.87c.76,2.5,2.06,3.86,3.77,5.5-.87,.98-3.47,2.56-5.53,3.14l-.29,.08,.41,1.19,.26-.08c2.67-.81,4.94-1.89,6.75-3.23,2.23,1.7,4.3,2.89,6.15,3.53l.42,.15-.16-1.59-.18-.05c-1.36-.43-3.51-1.95-4.68-3.12,.89-.89,1.69-1.33,2.43-2.55,.79-1.3,1.29-2.73,1.49-4.24v-.37s-4.58,0-4.58,0v-3.09h5.74Zm-3.73,4.72c-.6,2.15-1.69,3.31-2.97,4.54-1.67-1.58-3.07-2.86-3.62-4.54h6.59Z"/>
    </g>
    <g>
      <path class="c" d="M67.29,5.57l.11,.33,1.69-1.36-.08-.17c-.63-1.43-1.93-2.42-3.13-3.21l-.18-.12-.63,.78,.14,.15c.8,.91,1.51,1.81,2.09,3.59"/>
      <path class="c" d="M76.05,15.21l-1.96-.78-.09,.22c-.83,2.02-1.62,3.52-3,4.71l-.21,.18,.78,.71,.16-.11c.6-.41,1.35-1.12,2.23-2.11,.89-1,1.55-1.86,1.95-2.58l.14-.24Z"/>
      <path class="c" d="M83.78,5.51h-5.05l.76-2.4h5.42V1.81h-12.45v1.3h4.74l-.52,2.4h-3.66V13.66h4.21v4.84c0,.13-.05,.27-.18,.36-.14,.1-.28,.17-.48,.21l-2.11,.44,.25,1.29h2.63c.56,0,1.04-.17,1.44-.52,.41-.36,.62-.7,.62-1.28v-5.34h4.38V5.51Zm-2.1,2.56v4.04h-6.59v-2.02h5.23v-1.42h-5.23v-1.89h6.59v1.29Z"/>
      <path class="c" d="M71.86,1.81h-2.1v7.23c0,4.15-.86,7.72-2.56,10.63l-.11,.19,1.09,.8,.3-.4c.82-1.1,1.85-2.46,2.39-4.51,.66-2.48,.98-4.79,.98-7.05V1.81Z"/>
      <path class="c" d="M81.29,15.04l-.27-.16-1.04,.56,.27,.23c.58,.49,2.54,2.82,3.4,4.44l.23,.43,1.07-2.27-.08-.11c-1.29-1.75-2.95-2.73-3.57-3.11"/>
      <path class="c" d="M68.92,8.38h0v-.42s0,0,0,0v-.71h-4.51v1.13h2.41c-.1,7.13-1.83,9.52-2.78,10.81l-.35,.49,1.09,.32,.1-.1c1.43-1.48,2.57-3.27,3.47-7.19,.42-1.47,.54-3.62,.56-4.33"/>
    </g>
    <g>
      <rect class="c" x="54.26" y="2.51" width="2.11" height="13.44"/>
      <path class="c" d="M58.28,18.16c0,.45-.22,.93-.75,.94l-2.3,.41,.44,1.29h2.82c.61,0,.87-.19,1.21-.48,.39-.33,.58-.78,.58-1.34V1.01h-2.01V18.16Z"/>
      <path class="c" d="M43.83,14.11h8.71V7.32h-7.8v1.17h5.73v4.45h-6.39c.04-.68,.06-1.14,.06-1.65v-.11h5.01v-1.12h-5.01v-2.74h-2.06v3.47c0,3.28-.23,6.91-1.96,9.06l-.14,.17,.83,.78,.16-.19c1.14-1.3,1.97-2.89,2.48-4.75v5.15h2.03v-.75h5.58v.75h2.05v-5.9h-9.47c.07-.32,.13-.65,.19-.99m1.65,2.25h5.58v2.76h-5.58v-2.76Z"/>
      <path class="c" d="M40.67,7.94c1.13-.52,2.33-1.27,3.56-2.22v.32h6.11v-.52c.74,.56,1.54,1.08,2.41,1.58l.19,.11,.89-1.27-.23-.13c-.92-.52-1.63-1.2-2.3-1.87-.28-.28-.56-.55-.84-.79-.9-.79-1.54-1.48-1.9-2.03l-.07-.11h-2.41l-.07,.11c-.11,.17-.22,.34-.32,.51-.52,.85-1.06,1.72-2.03,2.53-.31,.26-.61,.52-.9,.78-.84,.73-1.63,1.42-2.47,1.85l-.17,.09,.27,1.19,.27-.13Zm6.69-5.27c.62,.77,1.33,1.49,2.14,2.18h-4.21c.86-.75,1.55-1.48,2.07-2.18"/>
    </g>
  </g>
  <g>
    <path class="c" d="M6.63,19.46s-.05,.08-.07,.12c.02-.03,.04-.06,.06-.09,0-.01,0-.02,.02-.03"/>
    <path class="c" d="M10.59,11.84c1.34,0,2.43-1.09,2.43-2.43s-1.08-2.43-2.43-2.43-2.43,1.09-2.43,2.43,1.09,2.43,2.43,2.43"/>
    <path class="c" d="M.74,8.65c.42,3.51,3.19,6.15,7.51,8.73,1.23,.73,2.6,1.47,4.07,2.21,.84,.43,1.71,.85,2.62,1.29,.67,.32,1.31,.65,1.94,.98-1.11,.47-2.47,.88-4.05,1.05,.14,.76,.34,1.49,.58,2.18,1.87-.2,3.86-.76,5.65-1.97,.97,.6,1.86,1.24,2.65,1.92-1.18,1.09-3.34,2.36-7.1,2.57,.46,.75,.99,1.45,1.59,2.11,2.69-.37,5.23-1.35,6.79-3.44,2.34,2.53,3.56,5.75,3.21,10.4,4.16-8,.68-14.44-7.51-19.19-.52-.3-1.05-.56-1.59-.8-1.88-.85-3.88-1.42-5.86-1.99-4.04-1.15-7.97-2.32-10.5-6.03"/>
    <path class="c" d="M9.97,29.66c-1.63-1.51-2.7-3.13-3.32-4.65-.45-1.05-.74-2.19-.66-3.34,.03-.82,.22-1.53,.56-2.06-4.34,6.42-1.19,13.86,7.56,19.06,8.34,4.95,13.99,3.56,17.55,9.75-.22-6.1-5.75-9.07-13.79-12.96-3.21-1.55-5.88-3.44-7.81-5.71h0s-.03-.03-.09-.09"/>
    <path class="c" d="M24,7.77c1.86,0,3.37-1.51,3.37-3.37s-1.51-3.37-3.37-3.37-3.37,1.51-3.37,3.37,1.51,3.37,3.37,3.37"/>
    <path class="c" d="M8.76,27.15c-.2-.76-.19-1.5-.05-2.2,1.26,.19,2.92,.32,4.69,.13-.24-.69-.44-1.41-.58-2.18-1.02,.11-2.13,.11-3.33-.04,.05-.09,.1-.17,.15-.25,.7-1.11,1.61-2.12,2.68-3.03-1.47-.74-2.83-1.48-4.07-2.21-.52,.57-1,1.17-1.42,1.79-.07,.08-.13,.17-.2,.29,0,.01,0,.02-.02,.03-.02,.03-.04,.06-.06,.09,0,0,0,0,0,.01,0,0,0,0,0,0-.34,.53-.53,1.24-.56,2.06-.08,1.15,.21,2.3,.66,3.34,.62,1.52,1.69,3.14,3.32,4.65,.06,.06,.09,.09,.09,.09h0s.08,0,.08,0h0s.02,0,.04,0l.2,.02s0,0,0,0c1.77,.16,3.81,.21,5.81-.07-.6-.65-1.13-1.35-1.59-2.11-1.63,.09-3.56-.03-5.83-.45"/>
    <path class="c" d="M35.72,2.02c-3.32,7.74-11.08,6.27-20.47,10.36-1.42,.62-2.76,1.4-4,2.31,1.97,.56,3.97,1.13,5.86,1.99,1.4-.61,2.94-1.15,4.63-1.58,11.95-3.05,14.69-9.6,13.99-13.07"/>
  </g>
</svg>