<?xml version="1.0" encoding="UTF-8"?>
<svg id="a" data-name="文字" xmlns="http://www.w3.org/2000/svg" xmlns:xlink="http://www.w3.org/1999/xlink" viewBox="0 0 176.09 85">
  <defs>
    <style>
      .d {
        fill: #fff;
      }

      .e {
        fill: url(#b);
      }

      .f {
        fill: #ec6d34;
      }

      .g {
        fill: url(#c);
      }
    </style>
    <linearGradient id="b" data-name="未命名漸層 8" x1="518.19" y1="-4293.63" x2="522.8" y2="-4293.63" gradientTransform="translate(-2540.62 -3463.59) rotate(136.83)" gradientUnits="userSpaceOnUse">
      <stop offset="0" stop-color="#ffe57a"/>
      <stop offset=".07" stop-color="#fcd671"/>
      <stop offset=".26" stop-color="#f6b05b"/>
      <stop offset=".45" stop-color="#f2934a"/>
      <stop offset=".64" stop-color="#ee7d3d"/>
      <stop offset=".83" stop-color="#ec7136"/>
      <stop offset="1" stop-color="#ec6d34"/>
    </linearGradient>
    <linearGradient id="c" data-name="未命名漸層 22" x1="8203.09" y1="4130.87" x2="8193.47" y2="4130.87" gradientTransform="translate(-8165.85 -4097.82)" gradientUnits="userSpaceOnUse">
      <stop offset="0" stop-color="#ffe57a"/>
      <stop offset=".35" stop-color="#f7b65e"/>
      <stop offset=".79" stop-color="#ef8140"/>
      <stop offset="1" stop-color="#ec6d34"/>
    </linearGradient>
  </defs>
  <path class="d" d="m54.98,39.19c0,.36-.1.56-.3.61-.24.07-.45.07-.63,0-.2-.07-.43-.27-.67-.61l-8.33-10.6v10.61c.01.45-.22.67-.68.68s-.69-.22-.65-.67v-12.33c-.04-.38.08-.61.33-.67.24-.05.45-.03.63.05.16.1.37.31.63.62l8.29,10.57v-10.57c-.01-.46.22-.69.68-.69.46.01.69.24.69.69v12.33Z"/>
  <path class="d" d="m59.66,27.44c0-.75.41-1.13,1.24-1.13h8.89c.55-.02.8.11.8.55,0,.38-.27.57-.8.57h-8.89s0,4.9,0,4.9h8.28c.5,0,.74.18.74.55s-.25.57-.74.57h-8.28s0,5.12,0,5.12h8.89c.52,0,.78.2.78.58,0,.4-.26.61-.78.61h-8.89c-.83,0-1.24-.37-1.25-1.12v-11.2Z"/>
  <path class="d" d="m87.23,26.26c.5,0,.74.19.74.57s-.25.57-.74.57h-5.01s.01,11.76.01,11.76c0,.45-.21.67-.63.68s-.63-.22-.63-.67v-11.75s-4.93,0-4.93,0c-.51,0-.76-.19-.76-.57.01-.38.27-.57.76-.57h11.2Z"/>
  <path class="d" d="m1.3,25.7h4.47c1.18,0,2.14.33,2.89.97.75.65,1.12,1.51,1.12,2.58s-.35,2-1.05,2.72c-.18.18-.36.33-.54.47.28.12.53.27.75.46.96.76,1.44,1.72,1.44,2.89s-.44,2.18-1.33,2.96c-.7.62-1.71.93-3.01.93H1.31c-.84,0-1.26-.4-1.26-1.19v-11.6c-.01-.79.41-1.19,1.25-1.19Zm-.1,6.22h4.57c.89,0,1.56-.25,2.02-.74.49-.54.74-1.18.73-1.93,0-.7-.23-1.26-.69-1.68-.49-.46-1.18-.68-2.07-.68H1.2s0,5.03,0,5.03Zm0,6.52h4.84c1.02,0,1.79-.25,2.33-.74.51-.46.77-1.09.77-1.91-.01-.81-.29-1.44-.83-1.89-.63-.51-1.48-.77-2.54-.77H1.2s0,5.32,0,5.32Z"/>
  <g>
    <circle class="e" cx="17.37" cy="23.93" r="2.3"/>
    <rect class="f" x="16.34" y="27.51" width="2.08" height="12.42" rx="1.04" ry="1.04"/>
  </g>
  <g>
    <g>
      <rect class="g" x="27.55" y="31.1" width="8.55" height="3.89" rx="1.95" ry="1.95" transform="translate(25.27 78.45) rotate(-127.87)"/>
      <path class="f" d="m31.71,36.08c.66.85,1.89,1,2.73.34h0c.85-.66,1-1.89.34-2.73l-1.41-1.82-3.07,2.39,1.41,1.82Z"/>
    </g>
    <path class="d" d="m31.7,40.38c-4.05,0-7.34-3.29-7.35-7.33,0-4.05,3.29-7.34,7.33-7.35s7.34,3.29,7.35,7.33c0,4.05-3.29,7.34-7.33,7.35Zm-.01-13.49c-3.39,0-6.15,2.76-6.14,6.16s2.76,6.15,6.16,6.14,6.15-2.76,6.14-6.16c0-3.39-2.76-6.15-6.16-6.14Z"/>
  </g>
  <path class="d" d="m100.68,35.27h-1.71v4.69h-.71v-4.69h-1.72v-.6h4.15v.6Z"/>
  <path class="d" d="m108.19,34.67v5.3h-.72v-2.41h-2.86v2.41h-.72v-5.3h.72v2.36h2.86v-2.36h.72Z"/>
  <path class="d" d="m114.69,39.38v.58h-3.27v-5.3h3.26v.58h-2.55v1.76h2.06v.56h-2.06v1.81h2.55Z"/>
  <path class="d" d="m121.83,39.97h-.64c-.13,0-.23-.05-.29-.15l-1.37-1.89c-.04-.06-.09-.1-.13-.13-.05-.03-.12-.04-.22-.04h-.54v2.21h-.71v-5.3h1.5c.33,0,.62.03.87.1s.45.17.6.29c.16.13.28.28.35.46s.11.38.11.61c0,.19-.03.36-.09.52-.06.16-.14.31-.26.44-.11.13-.25.24-.41.33-.16.09-.34.16-.55.21.09.05.17.13.24.23l1.54,2.1Zm-2.45-2.73c.21,0,.39-.03.55-.08.16-.05.29-.12.4-.21.11-.09.19-.2.24-.33.05-.13.08-.27.08-.42,0-.32-.1-.55-.31-.71-.21-.16-.52-.24-.93-.24h-.78v2h.75Z"/>
  <path class="d" d="m130.01,39.97h-.55c-.06,0-.12-.02-.16-.05-.04-.03-.07-.07-.09-.12l-.5-1.28h-2.38l-.5,1.28s-.04.08-.08.12c-.04.03-.09.05-.16.05h-.55l2.12-5.3h.72l2.12,5.3Zm-1.49-1.97l-.83-2.15c-.02-.06-.05-.14-.08-.22s-.05-.18-.08-.27c-.05.2-.1.37-.16.5l-.83,2.15h1.98Z"/>
  <path class="d" d="m134.8,34.67c.33,0,.63.04.87.12.25.08.45.19.62.33.16.14.28.32.36.52s.12.43.12.68-.04.47-.13.68c-.09.2-.21.38-.38.53s-.37.26-.62.35c-.24.08-.53.12-.85.12h-.85v1.98h-.71v-5.3h1.56Zm0,2.75c.2,0,.38-.03.54-.08.16-.05.29-.13.4-.23.11-.1.19-.21.24-.35.05-.14.08-.28.08-.45,0-.34-.1-.6-.31-.79-.21-.19-.52-.28-.95-.28h-.85v2.18h.85Z"/>
  <path class="d" d="m143.27,39.38v.58h-3.27v-5.3h3.26v.58h-2.55v1.76h2.06v.56h-2.06v1.81h2.55Z"/>
  <path class="d" d="m148.61,39.47c.22,0,.41-.04.59-.11.17-.08.32-.18.44-.32.12-.14.21-.3.27-.49s.09-.4.09-.63v-3.32h.71v3.32c0,.32-.05.61-.15.88-.1.27-.24.5-.42.7-.18.2-.4.35-.66.46-.26.11-.55.17-.88.17s-.62-.06-.88-.17c-.26-.11-.48-.27-.67-.46s-.32-.43-.42-.7c-.1-.27-.15-.56-.15-.88v-3.32h.71v3.32c0,.23.03.44.09.63.06.19.15.35.27.49.12.14.27.24.44.32.17.08.37.12.59.12Z"/>
  <path class="d" d="m158.09,35.27h-1.71v4.69h-.71v-4.69h-1.72v-.6h4.15v.6Z"/>
  <path class="d" d="m162.03,39.97h-.72v-5.3h.72v5.3Z"/>
  <path class="d" d="m169.3,38.71s.07.02.1.05l.28.31c-.22.25-.48.45-.79.59-.31.14-.68.21-1.12.21-.38,0-.72-.07-1.03-.2-.31-.13-.58-.32-.79-.56-.22-.24-.39-.53-.51-.87-.12-.34-.18-.71-.18-1.11s.06-.77.19-1.11.3-.63.53-.87c.23-.24.5-.43.82-.56s.67-.2,1.05-.2.71.06,1,.18c.29.12.54.29.76.5l-.24.33s-.03.05-.06.06-.05.02-.09.02c-.04,0-.1-.02-.16-.07s-.15-.1-.25-.16c-.1-.06-.23-.11-.39-.16-.16-.05-.35-.07-.57-.07-.27,0-.52.05-.75.14-.23.1-.42.24-.59.42-.16.18-.29.4-.38.67s-.14.56-.14.89.05.63.14.89c.09.26.22.48.39.66.16.18.36.32.58.41.22.09.46.14.72.14.16,0,.3,0,.43-.03.13-.02.24-.05.35-.09s.21-.09.3-.15c.09-.06.18-.13.28-.22.04-.04.08-.06.13-.06Z"/>
  <path class="d" d="m176.06,35.17s-.05.07-.07.08-.06.03-.09.03c-.04,0-.09-.02-.15-.06-.06-.04-.13-.09-.21-.14-.08-.05-.19-.1-.31-.14-.12-.04-.26-.06-.43-.06-.16,0-.3.02-.42.07-.12.04-.22.1-.31.18s-.14.16-.19.26c-.04.1-.06.21-.06.33,0,.15.04.27.11.37.07.1.17.18.29.25.12.07.25.13.41.18.15.05.31.1.47.16.16.05.31.12.47.18s.29.15.41.26c.12.1.22.23.29.38s.11.34.11.56c0,.23-.04.45-.12.66-.08.21-.19.38-.35.54-.15.15-.34.27-.56.36-.22.09-.47.13-.75.13-.34,0-.66-.06-.94-.19-.28-.13-.52-.3-.72-.51l.21-.34s.04-.05.07-.07.06-.03.09-.03c.03,0,.07.01.11.04.04.03.09.06.14.1.05.04.11.08.18.13s.14.09.23.13c.08.04.18.07.29.1.11.03.23.04.37.04.17,0,.32-.02.45-.07.13-.05.25-.11.34-.2.09-.09.16-.19.21-.31.05-.12.07-.25.07-.4,0-.16-.04-.29-.11-.4s-.17-.19-.29-.26c-.12-.07-.25-.13-.41-.18-.15-.05-.31-.1-.47-.15-.16-.05-.31-.11-.47-.18s-.29-.15-.41-.26c-.12-.11-.21-.24-.29-.4-.07-.16-.11-.36-.11-.59,0-.19.04-.37.11-.55.07-.18.18-.33.32-.47s.31-.25.51-.33c.2-.08.44-.12.7-.12.3,0,.56.05.81.14.24.09.46.23.64.41l-.17.34Z"/>
  <path class="d" d="m7.27,52.53v1.03H.36v-1.03h6.91Zm-5.05,13.1h-1.03v-6.04c.01-.21.11-.31.31-.31h4.82c.23-.01.35.1.35.33v4.23c0,.24-.12.36-.36.36H2.22v1.43Zm3.93-10.88v1.03H1.26v-1.03h4.89Zm.07,2.23v1.03H1.26v-1.03h4.96Zm0-6.75v1.03H1.33v-1.03h4.89Zm-.78,12.95c.14-.01.21-.08.21-.21v-2.51c.01-.11-.05-.16-.17-.16h-3.08c-.12-.01-.17.05-.17.17v2.7h3.22Zm3.9-11.85h-1.97v-1.03h7.03c.22-.04.34.03.35.21-.16,5.5-.2,9.06-.12,10.69.07,1.14.21,1.91.44,2.33.1.15.2.24.28.26.07,0,.13-.11.19-.33l.16-2.07,1.01.23c-.19,2.03-.43,3.2-.75,3.52-.2.2-.4.29-.61.28-.28-.01-.52-.15-.73-.4-.38-.48-.67-1.17-.87-2.09-.22-1.04-.23-4.85-.03-11.42.02-.11-.02-.16-.12-.17h-3.22v5.95l1.88-.68.37.98-2.28.78c-.07.82-.19,1.72-.37,2.7-.52,2-1.16,3.46-1.91,4.38l-.99-.31c1.22-1.75,1.96-3.91,2.23-6.47l-2.04.49-.33-.98,2.42-.59v-6.25Z"/>
  <path class="d" d="m33.59,51.61h-.9v-1.03h5.72v1.03h-1.08v14.24h-1.03v-2.96l-3.34,1.36-.45-.92,1.08-.4v-11.31Zm2.71,2.59v-2.59h-1.69v2.59h1.69Zm0,3.83v-2.8h-1.69v2.8h1.69Zm0,3.71v-2.68h-1.69v3.46l.14-.07,1.55-.71Zm1.97-4.13l-.24-1.01,1.01-.12,1.18-1.58c-.73-.92-1.49-1.66-2.28-2.23l.59-.83.61.49c.48-.88.92-1.85,1.32-2.91l.92.47c-.3.8-.81,1.84-1.53,3.13l.92.99c.51-.85.88-1.66,1.11-2.44l.99.28c-.37,1.38-1.21,2.87-2.52,4.47l1.69-.19-.42-.9.96-.4c.39.68.74,1.56,1.04,2.63l-.97.36-.23-.66-4.16.45Zm1.1,5.52c-.16-.04-.31-.13-.44-.28-.17-.28-.26-.64-.26-1.08v-3.01h1.03v3.13l.11.12,1.79-.24v-3.39h1.03v4.26c.01.3-.05.6-.18.91-.41,1.04-1.46,1.84-3.17,2.4l-.49-.94c.49-.14.91-.29,1.27-.45.96-.48,1.47-1.05,1.51-1.72-1.28.21-2.01.31-2.21.3Zm4.37-5.92l-.3-.99.89-.14.99-1.27c-.73-.85-1.49-1.53-2.28-2.04l.56-.87.66.5c.51-.85,1-1.78,1.46-2.8l.89.52c-.33.74-.87,1.72-1.64,2.92l.94.92c.6-.94,1.03-1.84,1.29-2.7l.97.3c-.36,1.28-1.17,2.69-2.42,4.25l1.7-.28-.24-.64.99-.31c.3.7.56,1.58.78,2.64l-1.01.26-.23-.96-4.02.68Zm3.43,4.99c.14-.01.21-.08.21-.21v-3.39h1.03v4.33c0,.2-.1.3-.3.3h-2.77v2.54h-1.03v-7.4h1.03v3.83h1.83Z"/>
  <path class="d" d="m65.07,58.9l-.26-1.01.96-.1c.55-.62,1.14-1.39,1.78-2.31-.85-.79-1.7-1.4-2.58-1.85l.47-.9c.09,0,.32.13.68.4.53-.9,1.04-1.9,1.51-2.99l.89.5c-.33.78-.87,1.79-1.64,3.05l1.22.96c.57-.97,1-1.92,1.29-2.84l.97.3c-.49,1.78-1.57,3.61-3.24,5.52l3.08-.4-.66-1.9.99-.3c.55,1.46.96,2.84,1.25,4.13l-.99.21-.28-1.1-1.67.21v7.62h-1.03v-7.5l-2.75.31Zm1.98,1.2c-.23,1.88-.56,3.59-.97,5.12l-.97-.26c.48-1.73.8-3.42.96-5.06l.99.21Zm4.54,4.35l-1.01.19-.82-4.49.99-.26.84,4.56Zm1.98,1.71h-1.03v-14.98c.01-.23.13-.35.35-.35h7.27c.24,0,.36.12.36.35v14.98h-1.03v-1.53h-5.93v1.53Zm2.52-14.31h-2.38c-.1,0-.15.05-.14.14v5.24h2.52v-5.38Zm0,6.4h-2.52v5.34h2.52v-5.34Zm1.03-1.03h2.38v-5.24c0-.09-.05-.14-.16-.14h-2.23v5.38Zm0,6.37h2.38v-5.34h-2.38v5.34Z"/>
  <path class="d" d="m97.45,66.03l-1.1-.26c.8-2.55,1.21-4.81,1.24-6.79v-8.13c.01-.21.12-.31.31-.31h3.66c.22,0,.33.1.33.31v13.99c0,.43-.12.75-.35.96-.39.34-1.3.38-2.73.12v-1.18c.61.2,1.12.31,1.51.35.17.02.3,0,.38-.09.1-.09.16-.25.16-.47v-3.91h-2.31c-.19,1.97-.55,3.78-1.1,5.41Zm3.41-10.89v-3.45c0-.08-.05-.12-.14-.12h-1.98c-.09,0-.14.05-.14.14v3.43h2.26Zm0,4.46v-3.43h-2.26v3.43h2.26Zm2.04-4.73l-.84-.64c.53-.57.97-1.17,1.31-1.81.26-.53.48-1.32.66-2.35l1.01.14-.23,1.11h7.19l.21.04c.11.08.17.26.17.54l-.07,5.15c-.04,2.48-.43,4.01-1.18,4.59-.64.46-1.83.51-3.57.14l-.14-1.2c1.67.39,2.71.41,3.11.05.19-.17.35-.53.5-1.06.11-.33.18-.77.23-1.34.15-3.62.16-5.56.04-5.81l-.12-.07h-6.68c-.3.85-.83,1.69-1.6,2.52Zm.92-.56h5.47c.17,0,.26.08.26.24v4.75c.01.19-.08.28-.28.28h-4.66v4.3c.01.34.06.57.16.7.14.14.3.22.49.24h5.53c.34-.01.6-.13.78-.35l.26-.59v-1.69l1.06.14c-.07,1.55-.26,2.52-.57,2.91-.33.41-.7.61-1.11.61h-6.14c-.5-.01-.89-.15-1.17-.42-.21-.21-.31-.55-.31-1.03v-9.85c.01-.16.09-.24.24-.24Zm.78,4.25h3.79c.08,0,.12-.04.12-.12v-2.99c.01-.07-.03-.1-.12-.1h-3.69c-.07,0-.1.04-.1.1v3.12Z"/>
  <path class="d" d="m129.35,58.53l-.45-.96c2.1-.52,3.4-1.39,3.92-2.59h-3.71v-1.03h3.83v-1.97h-2.21c-.42.52-.89.99-1.41,1.39l-.61-.82c.85-.67,1.56-1.57,2.14-2.7l.9.52-.33.57h5.5v1.03h-2.96v1.97h3.31v1.03h-2.75c1.06.83,2.08,1.72,3.06,2.66l-.66.77c-.87-.91-1.94-1.89-3.22-2.96-.57,1.3-2.02,2.33-4.35,3.08Zm2.31,7.62h-1.03v-6.84c.01-.23.13-.35.35-.35h11.87c.24,0,.37.12.37.35v6.84h-1.03v-1.53h-10.53v1.53Zm10.53-4.89v-1.13c0-.09-.05-.14-.16-.14h-10.23c-.11,0-.15.05-.14.14v1.13h10.53Zm-10.53,1.03v1.31h10.53v-1.31h-10.53Zm6.7-4.38c-.09-.01-.14-.06-.14-.16v-6.65c.01-.09.06-.14.14-.14h5.67c.1,0,.16.05.16.14v6.65c0,.1-.05.16-.16.16h-5.67Zm.92-5.92l-.04.04v4.8l.04.05h3.79c.06-.01.09-.04.09-.09v-4.77s-.03-.06-.09-.04h-3.79Z"/>
  <path class="d" d="m160.39,60.29l-.23-1.01.96-.09,1.15-1.44c-.72-.74-1.47-1.33-2.26-1.78l.52-.89c.08-.01.31.13.68.43.52-.8,1.02-1.68,1.5-2.63l.87.56c-.34.67-.88,1.56-1.64,2.66l.91.82c.48-.74.83-1.46,1.06-2.14l.97.31c-.38,1.23-1.18,2.54-2.39,3.93l1.57-.17-.36-1.01.99-.31c.3.7.56,1.58.78,2.65l-1.01.26-.12-.54-3.95.38Zm8.25,5.8h-1.03v-3.25c-2.52,1.69-4.87,2.74-7.07,3.15l-.42-.98c2.41-.49,4.57-1.38,6.47-2.68h-6.23v-.96h7.24v-1.13h-1.81c-.09-.01-.14-.06-.14-.16v-6.09c.01-.09.06-.14.14-.14h1.27l.78-1.31.89.52-.43.78h2.26c.11,0,.16.05.16.14v6.09c0,.11-.05.16-.16.16h-1.93v1.13h7.41v.96h-6.3c1.8,1.22,4,2.12,6.6,2.71l-.5.94c-2.44-.56-4.84-1.63-7.2-3.2v3.31Zm-3.06-14.3v.73h-1.03v-.73h-4.11v-1.03h4.11v-.63h1.03v.63h5.45v-.63h1.03v.63h3.93v1.03h-3.93v.8h-1.03v-.8h-5.45Zm4.13,4.72v-1.65s-.03-.06-.09-.04h-2.89l-.03.04v1.65h3.01Zm-3.01.96v1.78l.03.05h2.89c.06-.01.09-.04.09-.09v-1.74h-3.01Zm4.73,2.85l-.3-.99.75-.12c.37-.39.77-.89,1.2-1.5-.67-.74-1.39-1.35-2.14-1.81l.54-.89.57.42c.49-.71.95-1.5,1.39-2.39l.85.56c-.3.63-.81,1.44-1.53,2.44l.89.82c.43-.69.75-1.35.97-1.98l.97.31c-.41,1.18-1.17,2.44-2.28,3.76l1.57-.28-.3-.78.92-.31c.31.65.57,1.47.77,2.47l-.92.26-.17-.64-3.76.66Z"/>
</svg>