<?xml version="1.0" encoding="UTF-8"?>
<svg id="_圖層_10" data-name="圖層 10" xmlns="http://www.w3.org/2000/svg" viewBox="0 0 60 60">
  <defs>
    <style>
      .cls-1 {
        fill: #fff;
      }

      .cls-2 {
        stroke-linecap: round;
        stroke-linejoin: round;
      }

      .cls-2, .cls-3 {
        fill: #ec6d34;
        stroke: #09537b;
      }

      .cls-3 {
        stroke-miterlimit: 10;
      }

      .cls-4 {
        fill: #09537b;
      }
    </style>
  </defs>
  <circle class="cls-1" cx="30" cy="30" r="30"/>
  <g>
    <polygon class="cls-4" points="33.2 27.59 29.92 26 26.76 27.79 27.26 24.19 24.57 21.73 28.16 21.09 29.66 17.78 31.37 20.99 34.99 21.4 32.47 24.02 33.2 27.59"/>
    <path class="cls-2" d="M24.62,34.69l-3.51,16.05,8.57-6.59,8.98,6.27-3.3-15.83s-10.63,0-10.73,.11Z"/>
    <path class="cls-3" d="M29.88,9.44c-7.39,0-13.38,5.99-13.38,13.38s5.99,13.38,13.38,13.38,13.38-5.99,13.38-13.38-5.99-13.38-13.38-13.38Zm0,23.05c-5.34,0-9.67-4.33-9.67-9.67s4.33-9.67,9.67-9.67,9.67,4.33,9.67,9.67-4.33,9.67-9.67,9.67Z"/>
  </g>
</svg>