<?xml version="1.0" encoding="UTF-8"?>
<svg xmlns="http://www.w3.org/2000/svg" viewBox="0 0 1100.08 4100.72">
  <defs>
    <style>
      .cls-1 {
        letter-spacing: .9em;
      }

      .cls-2, .cls-3, .cls-4, .cls-5, .cls-6, .cls-7, .cls-8, .cls-9, .cls-10, .cls-11, .cls-12, .cls-13 {
        letter-spacing: .05em;
      }

      .cls-2, .cls-14, .cls-15 {
        font-family: AdobeMingStd-Light-B5pc-H, 'Adobe Ming Std';
        font-weight: 300;
      }

      .cls-16, .cls-17, .cls-18, .cls-8, .cls-13 {
        font-weight: 700;
      }

      .cls-16, .cls-8 {
        font-family: LinGothic-Bold, 'AR Heiti Bold B5';
      }

      .cls-19 {
        fill: #fff;
      }

      .cls-20 {
        letter-spacing: .01em;
      }

      .cls-4, .cls-21, .cls-22, .cls-23, .cls-7, .cls-9, .cls-10, .cls-12, .cls-24, .cls-25, .cls-26, .cls-27, .cls-28 {
        font-size: 20px;
      }

      .cls-4, .cls-29, .cls-22, .cls-9, .cls-11, .cls-24 {
        fill: #231815;
      }

      .cls-30, .cls-21, .cls-29, .cls-31 {
        letter-spacing: 0em;
      }

      .cls-30, .cls-21, .cls-32, .cls-33, .cls-23, .cls-6, .cls-7, .cls-9, .cls-12, .cls-24, .cls-25, .cls-26, .cls-34, .cls-27 {
        font-family: ArialMT, Arial;
      }

      .cls-35, .cls-33, .cls-26 {
        letter-spacing: .03em;
      }

      .cls-36 {
        fill: none;
        stroke: #231815;
        stroke-linecap: round;
        stroke-linejoin: round;
        stroke-width: 2px;
      }

      .cls-17, .cls-18, .cls-13 {
        font-family: Arial-BoldMT, Arial;
      }

      .cls-17, .cls-13 {
        font-size: 30px;
      }

      .cls-37, .cls-5, .cls-23, .cls-18, .cls-10, .cls-12 {
        fill: #ea5514;
      }

      .cls-38, .cls-25 {
        letter-spacing: .03em;
      }

      .cls-32, .cls-39 {
        letter-spacing: -.02em;
      }

      .cls-18 {
        font-size: 51.97px;
        letter-spacing: .02em;
      }

      .cls-40 {
        letter-spacing: -.03em;
      }

      .cls-41 {
        letter-spacing: .01em;
      }

      .cls-15 {
        letter-spacing: .92em;
      }
    </style>
  </defs>
  <g id="_圖層_3" data-name="圖層 3">
    <rect class="cls-19" width="1100.08" height="4100.72" rx="42" ry="42"/>
  </g>
  <g id="_圖層_1" data-name="圖層 1">
    <text class="cls-18" transform="translate(366.53 114.09)"><tspan x="0" y="0">Privacy Policy</tspan></text>
    <text transform="translate(66.98 196.85)"><tspan class="cls-28"><tspan class="cls-6" x="0" y="0">Notice of Personal Information Collection and Use by BIONE</tspan><tspan class="cls-33" x="594.92" y="0">T </tspan><tspan class="cls-6" x="613.97" y="0">Therapeutics Corp</tspan><tspan class="cls-8" x="795.5" y="0">：</tspan></tspan><tspan class="cls-25"><tspan x="0" y="36">In order to provide customers with the most comprehensive information on consumption, services,</tspan></tspan><tspan class="cls-25"><tspan x="0" y="72">and scientific knowledge, our company collects, processes, utilizes, or transfers personal information</tspan></tspan><tspan class="cls-27"><tspan class="cls-38" x="0" y="108">of customers directly or indirectly based on the following reasons and purposes. </tspan><tspan class="cls-20" x="758.97" y="108">W</tspan><tspan class="cls-38" x="778.09" y="108">e adhere to the</tspan></tspan><tspan class="cls-27"><tspan class="cls-38" x="0" y="144">principle of service first and the original intention of honesty and trustworthiness. </tspan><tspan class="cls-20" x="766.42" y="144">W</tspan><tspan class="cls-38" x="785.54" y="144">e hereby inform</tspan></tspan><tspan class="cls-27"><tspan class="cls-38" x="0" y="180">you in accordance with the provisions of the Personal Data Protection</tspan><tspan class="cls-40" x="657.3" y="180"> </tspan><tspan class="cls-38" x="662.35" y="180">Act.</tspan></tspan><tspan class="cls-5"><tspan class="cls-17" x="0" y="252">1.</tspan><tspan class="cls-27" x="28.02" y="252">Pursuant to the &quot;Specific Purposes and Categories of Personal data under the Personal Data</tspan></tspan><tspan class="cls-23"><tspan class="cls-3" x="0" y="288">Protection</tspan><tspan class="cls-31" x="100.05" y="288"> </tspan><tspan class="cls-3" x="105.5" y="288">Act&quot; promulgated by the Ministry of Justice, the specific purpose of BIONE</tspan><tspan class="cls-35" x="835.78" y="288">T </tspan><tspan class="cls-3" x="854.83" y="288">Therapeutics</tspan></tspan><tspan class="cls-10"><tspan class="cls-34" x="0" y="324">Corp&apos;s collection of personal information is</tspan><tspan class="cls-16" x="419.11" y="324">：</tspan></tspan><tspan class="cls-9"><tspan x="0" y="360">1. 040 Marketing (including financial cross-selling business)</tspan></tspan><tspan class="cls-9"><tspan x="0" y="396">2. 069 Contract, contract-like or other legal relation matters</tspan></tspan><tspan class="cls-24"><tspan class="cls-3" x="0" y="432">3. 090 Consume</tspan><tspan class="cls-31" x="160.76" y="432">r</tspan><tspan class="cls-3" x="167.31" y="432">, Customer Management and Service</tspan></tspan><tspan class="cls-9"><tspan x="0" y="468">4. 099 Domestic and overseas interchange business</tspan></tspan><tspan class="cls-9"><tspan x="0" y="504">5. 148 Internet shopping and other electronic commerce services</tspan></tspan><tspan class="cls-24"><tspan class="cls-3" x="0" y="540">6. 152</tspan><tspan class="cls-31" x="61.61" y="540"> </tspan><tspan class="cls-3" x="67.06" y="540">Advertisement or commercial behavior administration</tspan></tspan><tspan class="cls-24"><tspan class="cls-3" x="0" y="576">7. 159</tspan><tspan class="cls-31" x="61.61" y="576"> </tspan><tspan class="cls-3" x="67.06" y="576">Academic Research</tspan></tspan><tspan class="cls-9"><tspan x="0" y="612">8. 182 Other Consulting and Consultant Services</tspan></tspan><tspan class="cls-5"><tspan class="cls-17" x="0" y="684">2.</tspan><tspan class="cls-27" x="28.02" y="684">Pursuant to the &quot;Specific Purposes and Categories of Personal data under the Personal Data</tspan></tspan><tspan class="cls-23"><tspan class="cls-3" x="0" y="720">Protection</tspan><tspan class="cls-31" x="100.05" y="720"> </tspan><tspan class="cls-3" x="105.5" y="720">Act&quot; promulgated by the Ministry of Justice, the categories of personal information</tspan></tspan><tspan class="cls-23"><tspan class="cls-3" x="0" y="756">collected by BIONE</tspan><tspan class="cls-35" x="191.41" y="756">T </tspan><tspan class="cls-3" x="210.46" y="756">Therapeutics Corp are as follows (subject to the actual personal information</tspan></tspan><tspan class="cls-10"><tspan class="cls-34" x="0" y="792">collected by our company in relation to the relevant services provided to customers)</tspan><tspan class="cls-14" x="823.25" y="792">：</tspan></tspan><tspan class="cls-22"><tspan class="cls-6" x="0" y="828">1. Code</tspan><tspan class="cls-33" x="77.05" y="828"> </tspan><tspan class="cls-30" x="83.24" y="828">T</tspan><tspan class="cls-6" x="95.36" y="828">ypes of identification</tspan><tspan class="cls-2" x="298.58" y="828">：</tspan></tspan><tspan class="cls-24"><tspan class="cls-1" x="0" y="864">	</tspan><tspan class="cls-3" x="23.48" y="864">Code 001</tspan><tspan class="cls-35" x="118.22" y="864"> </tspan><tspan class="cls-31" x="124.41" y="864">T</tspan><tspan class="cls-3" x="136.53" y="864">ype for identifying individuals.</tspan></tspan><tspan class="cls-24"><tspan class="cls-1" x="0" y="898">	</tspan><tspan class="cls-3" x="23.48" y="898">For example: Name, title, address, o</tspan><tspan class="cls-35" x="381.83" y="898">f</tspan><tspan class="cls-3" x="388.03" y="898">fice address, previous address, home telephone numbe</tspan><tspan class="cls-31" x="932.55" y="898">r</tspan><tspan class="cls-3" x="939.1" y="898">,</tspan></tspan><tspan class="cls-24"><tspan class="cls-1" x="0" y="932">	</tspan><tspan class="cls-3" x="23.48" y="932">cell phone numbe</tspan><tspan class="cls-31" x="197.37" y="932">r</tspan><tspan class="cls-3" x="203.93" y="932">, messenger account, internet web signing up account, postal and resident</tspan></tspan><tspan class="cls-24"><tspan class="cls-1" x="0" y="966">	</tspan><tspan class="cls-3" x="23.48" y="966">address, photograph, fingerprint, the E-mail address, digital signature, serial number of certificate</tspan></tspan><tspan class="cls-24"><tspan class="cls-1" x="0" y="1000">	</tspan><tspan class="cls-3" x="23.48" y="1000">card,certificate serial numbe</tspan><tspan class="cls-31" x="302.59" y="1000">r</tspan><tspan class="cls-3" x="309.14" y="1000">, record providing internet identity authentication or applying inquiry</tspan></tspan><tspan class="cls-24"><tspan class="cls-1" x="0" y="1034">	</tspan><tspan class="cls-3" x="23.48" y="1034">service</tspan></tspan><tspan class="cls-24"><tspan class="cls-1" x="0" y="1068">	</tspan><tspan class="cls-3" x="23.48" y="1068">record as well as any other data which can identify the individual.</tspan></tspan><tspan class="cls-24"><tspan class="cls-1" x="0" y="1104">	</tspan><tspan class="cls-3" x="23.48" y="1104">Code 002</tspan><tspan class="cls-35" x="118.22" y="1104"> </tspan><tspan class="cls-31" x="124.41" y="1104">T</tspan><tspan class="cls-3" x="136.53" y="1104">ype for identifying finance</tspan></tspan><tspan class="cls-24"><tspan class="cls-1" x="0" y="1140">	</tspan><tspan class="cls-3" x="23.48" y="1140">For example:</tspan><tspan class="cls-35" x="152.19" y="1140"> </tspan><tspan class="cls-3" x="158.38" y="1140">The number and name for financial institutions</tspan><tspan class="cls-41" x="614.61" y="1140">’</tspan><tspan class="cls-3" x="619.31" y="1140" xml:space="preserve"> account, the number of credit card</tspan></tspan><tspan class="cls-24"><tspan class="cls-1" x="0" y="1176">	</tspan><tspan class="cls-3" x="23.48" y="1176">or VIS</tspan><tspan class="cls-31" x="85.05" y="1176">A</tspan><tspan class="cls-3" x="98.29" y="1176" xml:space="preserve"> card, the number of insurance policy and any other number or account of individual, etc. </tspan></tspan><tspan class="cls-24"><tspan class="cls-1" x="0" y="1212">	</tspan><tspan class="cls-3" x="23.48" y="1212">Code 003</tspan><tspan class="cls-35" x="118.22" y="1212"> </tspan><tspan class="cls-31" x="124.41" y="1212">T</tspan><tspan class="cls-3" x="136.53" y="1212">ype for identifying in government data</tspan></tspan><tspan class="cls-24"><tspan class="cls-1" x="0" y="1248">	</tspan><tspan class="cls-3" x="23.48" y="1248">For example:</tspan><tspan class="cls-35" x="152.19" y="1248"> </tspan><tspan class="cls-3" x="158.38" y="1248">The number of personal ID card, certificate identity numbe</tspan><tspan class="cls-31" x="731.08" y="1248">r</tspan><tspan class="cls-3" x="737.64" y="1248">, tax registration numbers,</tspan></tspan><tspan class="cls-24"><tspan class="cls-1" x="0" y="1284">	</tspan><tspan class="cls-3" x="23.48" y="1284">the number of Insurance certificate, the disabled manual numbe</tspan><tspan class="cls-31" x="650.25" y="1284">r</tspan><tspan class="cls-3" x="656.81" y="1284">, the number of retirement</tspan></tspan><tspan class="cls-24"><tspan class="cls-1" x="0" y="1320">	</tspan><tspan class="cls-3" x="23.48" y="1320">certificate and the number of passport, etc.</tspan></tspan><tspan class="cls-22"><tspan class="cls-6" x="0" y="1356">2. Code</tspan><tspan class="cls-33" x="77.05" y="1356"> </tspan><tspan class="cls-30" x="83.24" y="1356">T</tspan><tspan class="cls-6" x="95.36" y="1356">ypes of characteristic</tspan><tspan class="cls-2" x="305.21" y="1356">：</tspan></tspan><tspan class="cls-22"><tspan class="cls-15" x="0" y="1392">	</tspan><tspan class="cls-6" x="23.48" y="1392">Code 0</tspan><tspan class="cls-32" x="93.97" y="1392">1</tspan><tspan class="cls-6" x="104.61" y="1392">1 Individual description</tspan></tspan><tspan class="cls-24"><tspan class="cls-1" x="0" y="1428">	</tspan><tspan class="cls-3" x="23.48" y="1428">For example:</tspan><tspan class="cls-31" x="152.19" y="1428"> </tspan><tspan class="cls-3" x="157.64" y="1428">Age, gende</tspan><tspan class="cls-31" x="269.96" y="1428">r</tspan><tspan class="cls-3" x="276.51" y="1428">, date of birth, native place, nationality and voice, etc.</tspan></tspan><tspan class="cls-22"><tspan class="cls-15" x="0" y="1464">	</tspan><tspan class="cls-6" x="23.48" y="1464">Code 012 Physical description</tspan></tspan><tspan class="cls-24"><tspan class="cls-1" x="0" y="1500">	</tspan><tspan class="cls-3" x="23.48" y="1500">For example: Height, weight and blood type, etc.</tspan></tspan><tspan class="cls-22"><tspan class="cls-15" x="0" y="1536">	</tspan><tspan class="cls-6" x="23.48" y="1536">Code 013 Habit</tspan></tspan><tspan class="cls-24"><tspan class="cls-1" x="0" y="1572">	</tspan><tspan class="cls-3" x="23.48" y="1572">For example: Smoke and alcohol, etc.</tspan></tspan><tspan class="cls-4"><tspan class="cls-34" x="0" y="1608">3. Code Family</tspan><tspan class="cls-14" x="148.49" y="1608">：</tspan></tspan><tspan class="cls-22"><tspan class="cls-15" x="0" y="1644">	</tspan><tspan class="cls-6" x="23.48" y="1644">Code 021 Family</tspan></tspan><tspan class="cls-24"><tspan class="cls-1" x="0" y="1680">	</tspan><tspan class="cls-3" x="23.48" y="1680">For example: Single or married, spouse&apos;s or co-habitant&apos;s name, ex-spouse&apos;s name or</tspan></tspan><tspan class="cls-24"><tspan class="cls-1" x="0" y="1716">	</tspan><tspan class="cls-3" x="23.48" y="1716">ex-cohabitant&apos;s name, the wedding date and the number of children, etc.</tspan></tspan><tspan class="cls-24"><tspan class="cls-1" x="0" y="1752">	</tspan><tspan class="cls-3" x="23.48" y="1752">Code 022 History of marriage</tspan></tspan><tspan class="cls-24"><tspan class="cls-1" x="0" y="1788">	</tspan><tspan class="cls-3" x="23.48" y="1788">For example:</tspan><tspan class="cls-35" x="152.19" y="1788"> </tspan><tspan class="cls-3" x="158.38" y="1788">The details of previous marriage, co-habitation, divorce or separation and the names</tspan></tspan><tspan class="cls-24"><tspan class="cls-1" x="0" y="1824">	</tspan><tspan class="cls-3" x="23.48" y="1824">of the relevant part</tspan><tspan class="cls-39" x="210.25" y="1824">y</tspan><tspan class="cls-3" x="219.76" y="1824">, etc.</tspan></tspan><tspan class="cls-4"><tspan class="cls-34" x="0" y="1860">4. Code Details concerning finance</tspan><tspan class="cls-14" x="344.19" y="1860">：</tspan></tspan><tspan class="cls-22"><tspan class="cls-15" x="0" y="1896">	</tspan><tspan class="cls-6" x="23.48" y="1896">Code 084 Loans</tspan></tspan><tspan class="cls-24"><tspan class="cls-1" x="0" y="1932">	</tspan><tspan class="cls-3" x="23.48" y="1932">For example:</tspan><tspan class="cls-35" x="152.19" y="1932"> </tspan><tspan class="cls-3" x="158.38" y="1932">The type of loan, the contractual amount of the loan, the remaining amount of the loan,</tspan></tspan><tspan class="cls-24"><tspan class="cls-1" x="0" y="1968">	</tspan><tspan class="cls-3" x="23.48" y="1968">date of the first loan, due date of the loan, interest payable, record of payment and details of</tspan></tspan><tspan class="cls-24"><tspan class="cls-1" x="0" y="2004">	</tspan><tspan class="cls-3" x="23.48" y="2004">mortgage, etc.</tspan></tspan><tspan class="cls-24"><tspan class="cls-1" x="0" y="2040">	</tspan><tspan class="cls-3" x="23.48" y="2040">Code 093 Financial deals</tspan></tspan><tspan class="cls-24"><tspan class="cls-1" x="0" y="2076">	</tspan><tspan class="cls-3" x="23.48" y="2076">For example:</tspan><tspan class="cls-35" x="152.19" y="2076"> </tspan><tspan class="cls-3" x="158.38" y="2076">The amount paid, the amount of credit limit, guaranto</tspan><tspan class="cls-31" x="680.53" y="2076">r</tspan><tspan class="cls-3" x="687.09" y="2076">, the way to pa</tspan><tspan class="cls-39" x="832.17" y="2076">y</tspan><tspan class="cls-3" x="841.68" y="2076">, record of</tspan></tspan><tspan class="cls-24"><tspan class="cls-1" x="0" y="2112">	</tspan><tspan class="cls-3" x="23.48" y="2112">dealing, financial guarantee or other warrant</tspan><tspan class="cls-39" x="459.84" y="2112">y</tspan><tspan class="cls-3" x="469.35" y="2112">, etc.</tspan></tspan><tspan class="cls-4"><tspan class="cls-34" x="0" y="2148">5. Code Health and other</tspan><tspan class="cls-14" x="247.49" y="2148">：</tspan></tspan><tspan class="cls-24"><tspan class="cls-1" x="0" y="2184">	</tspan><tspan class="cls-3" x="23.48" y="2184">Code </tspan><tspan class="cls-39" x="81.85" y="2184">11</tspan><tspan class="cls-3" x="103.12" y="2184">1 Record of health</tspan></tspan><tspan class="cls-24"><tspan class="cls-1" x="0" y="2220">	</tspan><tspan class="cls-3" x="23.48" y="2220">For example: Medical reports, record of treatment and diagnosis, result of examination,</tspan></tspan><tspan class="cls-24"><tspan class="cls-1" x="0" y="2256">	</tspan><tspan class="cls-3" x="23.48" y="2256">handicapped type, degree, validity period, identity number and contacto</tspan><tspan class="cls-31" x="727.12" y="2256">r</tspan><tspan class="cls-3" x="733.67" y="2256">, etc.</tspan></tspan><tspan class="cls-24"><tspan class="cls-1" x="0" y="2292">	</tspan><tspan class="cls-3" x="23.48" y="2292">Code </tspan><tspan class="cls-39" x="81.85" y="2292">1</tspan><tspan class="cls-3" x="92.49" y="2292">13 Races or origin of birth</tspan></tspan><tspan class="cls-24"><tspan class="cls-1" x="0" y="2328">	</tspan><tspan class="cls-3" x="23.48" y="2328">For example: DN</tspan><tspan class="cls-31" x="189.63" y="2328">A</tspan><tspan class="cls-3" x="202.87" y="2328" xml:space="preserve"> (deoxyribonucleic acid) information.</tspan></tspan><tspan class="cls-5"><tspan class="cls-17" x="0" y="2400">3.</tspan><tspan class="cls-27" x="28.02" y="2400">Period, recipients, Regions, and methods of use</tspan></tspan><tspan class="cls-9"><tspan x="0" y="2436">1. Period: </tspan></tspan><tspan class="cls-9"><tspan x="0" y="2472">The period of use of the above-mentioned personal data of customers shall be based on the specific</tspan></tspan><tspan class="cls-9"><tspan x="0" y="2508" xml:space="preserve">purpose of collection, or according to relevant laws and regulations (For example:  Regulations for</tspan></tspan><tspan class="cls-9"><tspan x="0" y="2544">Administration on Human Organ Bank, etc.), or the necessary retention period for business operation,</tspan></tspan><tspan class="cls-9"><tspan x="0" y="2580">or the storage period established by individual contracts regarding data.</tspan></tspan><tspan class="cls-9"><tspan x="0" y="2616">2. Recipients: </tspan></tspan><tspan class="cls-24"><tspan class="cls-3" x="0" y="2652">BIONE</tspan><tspan class="cls-35" x="67.24" y="2652">T </tspan><tspan class="cls-3" x="86.29" y="2652">Therapeutics Corp, BIONE</tspan><tspan class="cls-35" x="348.16" y="2652">T</tspan><tspan class="cls-3" x="361.01" y="2652" xml:space="preserve"> Group, recipients of international transfer of personal data not</tspan></tspan><tspan class="cls-9"><tspan x="0" y="2688">restricted by the competent authority for central purposes, companies that jointly market or use</tspan></tspan><tspan class="cls-24"><tspan class="cls-3" x="0" y="2724">customer data with our compan</tspan><tspan class="cls-39" x="308.02" y="2724">y</tspan><tspan class="cls-3" x="317.54" y="2724">, other organizations that have business dealings with our compan</tspan><tspan class="cls-39" x="968.45" y="2724">y</tspan><tspan class="cls-3" x="977.96" y="2724">,</tspan></tspan><tspan class="cls-9"><tspan x="0" y="2760">and investigative authorities with legal investigation rights.</tspan></tspan><tspan class="cls-9"><tspan x="0" y="2796">3. Regions: </tspan></tspan><tspan class="cls-9"><tspan x="0" y="2832">The locations of the above-mentioned recipients of use, both domestic and international.</tspan></tspan><tspan class="cls-9"><tspan x="0" y="2868">4. Methods of use: </tspan></tspan><tspan class="cls-9"><tspan x="0" y="2904">Personal data shall be directly or indirectly collected, processed, used, and/or internationally</tspan></tspan><tspan class="cls-9"><tspan x="0" y="2940">transferred in accordance with relevant laws and regulations, through automated machines or other</tspan></tspan><tspan class="cls-27"><tspan class="cls-11" x="0" y="2976">non-automated means (For example:</tspan><tspan class="cls-5" x="362.05" y="2976"> </tspan><tspan class="cls-11" x="368.61" y="2976">using electronic files, pape</tspan><tspan class="cls-29" x="632.3" y="2976">r</tspan><tspan class="cls-11" x="638.86" y="2976">, or other appropriate methods in</tspan></tspan><tspan class="cls-9"><tspan x="0" y="3012">line with current scientific and technological standards).</tspan></tspan><tspan class="cls-37"><tspan class="cls-13" x="0" y="3084">4.</tspan><tspan class="cls-7" x="28.02" y="3084">In accordance with the Personal Data Protection</tspan><tspan class="cls-21" x="503.04" y="3084"> </tspan><tspan class="cls-7" x="508.49" y="3084">Act, customers be able to exercise the following</tspan></tspan><tspan class="cls-12"><tspan x="0" y="3120">rights with regard to his/her personal data and such rights</tspan></tspan><tspan class="cls-9"><tspan x="0" y="3156">1. the right to make an inquiry of and to review his/her personal data;</tspan></tspan><tspan class="cls-9"><tspan x="0" y="3192">2. the right to request a copy of his/her personal data;</tspan></tspan><tspan class="cls-9"><tspan x="0" y="3228">3. the right to supplement or correct his/her personal data;</tspan></tspan><tspan class="cls-9"><tspan x="0" y="3264">4. the right to demand the cessation of the collection, processing or use of his/her personal data; and</tspan></tspan><tspan class="cls-9"><tspan x="0" y="3300">5. the right to erase his/her personal data. </tspan></tspan><tspan class="cls-9"><tspan x="0" y="3336">Except as otherwise required by law or necessary for the performance of our duties and business,</tspan></tspan><tspan class="cls-9"><tspan x="0" y="3372">customers may at any time call our customer service 0800-800-018 to apply to exercise the</tspan></tspan><tspan class="cls-24"><tspan class="cls-3" x="0" y="3408">above-mentioned rights with BIONE</tspan><tspan class="cls-35" x="350.93" y="3408">T </tspan><tspan class="cls-3" x="369.98" y="3408">Therapeutics Corp.</tspan></tspan><tspan class="cls-5"><tspan class="cls-17" x="0" y="3480">5.</tspan><tspan class="cls-27" x="28.02" y="3480">Customers have the freedom to decide whether or not to disclose their personal information.</tspan></tspan><tspan class="cls-23"><tspan class="cls-3" x="0" y="3516">Nevertheless, BIONE</tspan><tspan class="cls-35" x="209.07" y="3516">T </tspan><tspan class="cls-3" x="228.12" y="3516">Therapeutics Corp retains the right to exercise its discretion in determining</tspan></tspan><tspan class="cls-23"><tspan class="cls-3" x="0" y="3552">whether to process any business or services related to the customer and BIONE</tspan><tspan class="cls-35" x="787.34" y="3552">T </tspan><tspan class="cls-3" x="806.39" y="3552">Therapeutics</tspan></tspan><tspan class="cls-12"><tspan x="0" y="3588">Corp if the customer declines to provide their personal information.</tspan></tspan><tspan class="cls-37"><tspan class="cls-13" x="0" y="3660">6.</tspan><tspan class="cls-7" x="28.02" y="3660">If any revisions are made to this notice, BIONE</tspan><tspan class="cls-26" x="489.65" y="3660">T </tspan><tspan class="cls-7" x="508.7" y="3660">Therapeutics Corp reserves the right to inform</tspan></tspan><tspan class="cls-12"><tspan x="0" y="3696">customers of any significant changes and the designated webpage through verbal communication,</tspan></tspan><tspan class="cls-12"><tspan x="0" y="3732">written notice, phone, text message, email, fax, electronic document, or any other means of</tspan></tspan><tspan class="cls-23"><tspan class="cls-3" x="0" y="3768">communication that e</tspan><tspan class="cls-35" x="210.1" y="3768">f</tspan><tspan class="cls-3" x="216.29" y="3768">fectively inform or make the information available to customers (including</tspan></tspan><tspan class="cls-12"><tspan x="0" y="3804">providing customers with a webpage link that contains the details of this notice). Customers are</tspan></tspan><tspan class="cls-12"><tspan x="0" y="3840">strongly advised to carefully review the contents of the designated webpage.</tspan></tspan></text>
    <path class="cls-36" d="m70.61,1047.77l5.09,12.13s3.52-14.09,12.13-18"/>
    <path class="cls-36" d="m70.61,1396.81l5.09,12.13s3.52-14.09,12.13-18"/>
    <path class="cls-36" d="m70.61,1574.46l5.09,12.13s3.52-14.09,12.13-18"/>
    <path class="cls-36" d="m70.61,1647.25l5.09,12.13s3.52-14.09,12.13-18"/>
    <path class="cls-36" d="m70.61,1718.46l5.09,12.13s3.52-14.09,12.13-18"/>
    <path class="cls-36" d="m70.61,1825.68l5.09,12.13s3.52-14.09,12.13-18"/>
    <path class="cls-36" d="m70.61,1937.2l5.09,12.13s3.52-14.09,12.13-18"/>
    <path class="cls-36" d="m70.61,2079.64l5.09,12.13s3.52-14.09,12.13-18"/>
    <path class="cls-36" d="m70.61,2224.03l5.09,12.13s3.52-14.09,12.13-18"/>
    <path class="cls-36" d="m70.61,2366.46l5.09,12.13s3.52-14.09,12.13-18"/>
    <path class="cls-36" d="m70.61,2478.38l5.09,12.13s3.52-14.09,12.13-18"/>
    <path class="cls-36" d="m70.61,1286.99l5.09,12.13s3.52-14.09,12.13-18"/>
  </g>
</svg>