<?xml version="1.0" encoding="UTF-8"?>
<svg id="_圖層_11" data-name="圖層 11" xmlns="http://www.w3.org/2000/svg" viewBox="0 0 133.2 48.3">
  <defs>
    <style>
      .cls-1 {
        fill: #fff;
      }
    </style>
  </defs>
  <g>
    <path class="cls-1" d="m7.6,19.2s0,0,0,.1c0,0,0,0,0,0,0,0,0,0,0,0"/>
    <path class="cls-1" d="m11.5,11.7c1.3,0,2.4-1.1,2.4-2.4s-1.1-2.4-2.4-2.4-2.4,1.1-2.4,2.4,1.1,2.4,2.4,2.4"/>
    <path class="cls-1" d="m1.8,8.5c.4,3.5,3.1,6.1,7.4,8.6,1.2.7,2.6,1.4,4,2.2.8.4,1.7.8,2.6,1.3.7.3,1.3.6,1.9,1-1.1.5-2.4.9-4,1,.1.8.3,1.5.6,2.1,1.8-.2,3.8-.7,5.6-1.9,1,.6,1.8,1.2,2.6,1.9-1.2,1.1-3.3,2.3-7,2.5.5.7,1,1.4,1.6,2.1,2.7-.4,5.2-1.3,6.7-3.4,2.3,2.5,3.5,5.7,3.2,10.3,4.1-7.9.7-14.2-7.4-18.9-.5-.3-1-.6-1.6-.8-1.9-.8-3.8-1.4-5.8-2-4-1.1-7.9-2.3-10.4-6"/>
    <path class="cls-1" d="m10.9,29.3c-1.6-1.5-2.7-3.1-3.3-4.6-.4-1-.7-2.2-.7-3.3,0-.8.2-1.5.6-2-4.3,6.3-1.2,13.7,7.5,18.8,8.2,4.9,13.8,3.5,17.3,9.6-.2-6-5.7-9-13.6-12.8-3.2-1.5-5.8-3.4-7.7-5.6h0s0,0,0,0"/>
    <path class="cls-1" d="m24.7,7.7c1.8,0,3.3-1.5,3.3-3.3s-1.5-3.3-3.3-3.3-3.3,1.5-3.3,3.3,1.5,3.3,3.3,3.3"/>
    <path class="cls-1" d="m9.7,26.8c-.2-.7-.2-1.5,0-2.2,1.2.2,2.9.3,4.6.1-.2-.7-.4-1.4-.6-2.1-1,.1-2.1.1-3.3,0,0,0,0-.2.1-.2.7-1.1,1.6-2.1,2.6-3-1.4-.7-2.8-1.5-4-2.2-.5.6-1,1.2-1.4,1.8,0,0-.1.2-.2.3,0,0,0,0,0,0,0,0,0,0,0,0,0,0,0,0,0,0,0,0,0,0,0,0-.3.5-.5,1.2-.6,2,0,1.1.2,2.3.6,3.3.6,1.5,1.7,3.1,3.3,4.6,0,0,0,0,0,0h0s0,0,0,0h0s0,0,0,0h.2s0,0,0,0c1.7.2,3.8.2,5.7,0-.6-.6-1.1-1.3-1.6-2.1-1.6,0-3.5,0-5.8-.4"/>
    <path class="cls-1" d="m36.3,2c-3.3,7.6-10.9,6.2-20.2,10.2-1.4.6-2.7,1.4-3.9,2.3,1.9.6,3.9,1.1,5.8,2,1.4-.6,2.9-1.1,4.6-1.6,11.8-3,14.5-9.5,13.8-12.9"/>
  </g>
  <g>
    <path class="cls-1" d="m104.4,27.8l2.2-5.9.2-.4h0,0c0-.1,0-.2,0-.2h0l1.1-3.1h0l1.4-4c0,0,0-.2,0-.2h0s2.3-6.4,2.3-6.4h1.1l2.3,6.4h0s0,.1.1.2l1.4,4h-6l-.9,2.5h7.7l.9,2.3,1.8,4.6h4.7v-.2s0,0,0,0c-.6-1-1.2-2.5-1.9-4.4l-3.6-9.4s0,0,0,0l-2.3-6c0,0-.1-.2-.2-.4l-.5-1.3c-1.1-2.1-3.3-2.1-3.3-2.1h-4.6s-2,5.7-3.3,9.4h0c0,.2-.1.3-.2.4l-3.4,9.1-1.8,4.4c0,.1-.1.3-.2.4,0,0,0,0,0,0l-.2.4h4.9Z"/>
    <path class="cls-1" d="m83.3,27.8c5.1,0,11.3-1.3,11.3-7.4v-1.9c0-2.3-1.9-2.6-1.9-2.6h0s-8.6,0-8.6,0c-.2,0-.3,0-.4,0l-1,2.4c.2,0,.4.1.7.1h6.7v1.5c0,4.9-3.6,5.3-6.9,5.3s-6.9-1.9-6.9-5.6v-7.2c0-3.7,2.2-5.6,6.9-5.6h7.8l.6-1.1.8-1.4h0c0,0-9,0-9,0h0c0,0-.1,0-.2,0-4.2,0-11.3,1-11.3,7.8v8.2c0,6.8,7.1,7.8,11.3,7.8Z"/>
    <path class="cls-1" d="m54.5,27.8c5.2,0,11.3-1.3,11.3-7.4v-1.9c0-2.3-1.9-2.6-1.9-2.6h0s-6.4,0-6.4,0l-1.7,2.5h5.5v1.5c0,4.9-3.6,5.3-6.9,5.3s-6.9-1.9-6.9-5.6v-7.2c0-3.7,2.2-5.6,6.9-5.6h7.8l.6-1.1.8-1.4h0c0,0-9,0-9,0h0s-.1,0-.2,0c-4.2,0-11.3,1-11.3,7.8v8.2c0,6.8,7.1,7.8,11.3,7.8Z"/>
    <path class="cls-1" d="m44.4,33.5c-.2,0-.4.2-.4.4s.2.4.4.4h2.9c.2,0,.4-.2.4-.4s-.2-.4-.4-.4h-2.9Z"/>
    <path class="cls-1" d="m47.2,37h-2.9c-.2,0-.4.2-.4.4s.2.4.4.4h2.9c.2,0,.4-.2.4-.4s-.2-.4-.4-.4Z"/>
    <path class="cls-1" d="m47.2,38.7h-2.9c-.2,0-.4.2-.4.4s.2.4.4.4h2.9c.2,0,.4-.2.4-.4s-.2-.4-.4-.4Z"/>
    <path class="cls-1" d="m48.2,35.7c0-.3-.2-.5-.5-.5h-3.9c-.3,0-.5.2-.5.5s.2.5.5.5h3.9c.3,0,.5-.2.5-.5Z"/>
    <path class="cls-1" d="m47.2,40.4h-2.8c-.3,0-.5.2-.5.5v2.9c0,.3.2.5.5.5h2.8c.3,0,.5-.2.5-.5v-2.9c0-.3-.2-.5-.5-.5Zm-.5,2.9h-1.8v-1.9h1.8v1.9Z"/>
    <path class="cls-1" d="m55.2,42.1c-.3,0-.5.1-.6.4l-.2.9c-.5-1.7-.5-5-.5-7,0-.5,0-.9,0-1.3,0-.8-.7-1.5-1.5-1.5h-3.8c-.3,0-.5.2-.5.5s.2.5.5.5h1.2c0,.6,0,2.1,0,3.4h-1.1c-.3,0-.5.2-.5.5s.2.5.5.5h1c0,.6,0,1.1-.2,1.5-.4,1.7-1.7,3.6-1.7,3.6-.2.2,0,.5.1.7,0,0,.2,0,.3,0,.2,0,.3,0,.4-.2,0,0,1.4-2.1,1.8-4,0-.4.2-1,.2-1.7h.8c.3,0,.5-.2.5-.5s-.2-.5-.5-.5h-.8c0-1.4,0-2.8,0-3.4h1.6c.3,0,.5.2.6.5,0,.4,0,.8,0,1.3,0,2.5,0,6.2.7,7.8.1.3.4.5.8.5h0c.3,0,.6-.2.8-.5h0s.3-1.6.3-1.6c0-.3-.1-.5-.4-.6Z"/>
    <path class="cls-1" d="m62,41.9s0,0,0,0v-7.1c0-.6-.5-1.1-1.1-1.1h-2.4c-.3,0-.5.2-.5.5s.2.5.5.5h.2v7.5h-.4c-.3.1-.4.4-.4.6,0,.2.2.4.5.4s0,0,0,0l2.5-.5v2c0,.3.2.5.5.5s.5-.2.5-.5v-2.5c0,0,0-.2,0-.2Zm-2.3-4.6h1.3v1.7h-1.3v-1.7Zm1.2-2.7c0,0,.1,0,.1.1v1.6h-1.3v-1.7h1.2Zm-1.2,7.3v-2h1.3v1.7l-1.3.3Z"/>
    <path class="cls-1" d="m69.4,37.4c0-.2-.4-.4-.6-.3-.2,0-.4.4-.3.6v.3c0,0-.7,0-.7,0l1.6-2.6c.1-.2,0-.5-.2-.6-.2-.1-.5,0-.6.2l-.6,1c-.1-.1-.2-.3-.4-.4l.8-1.6c.1-.2,0-.5-.2-.6-.2-.1-.5,0-.6.2l-.7,1.4c-.2,0-.4,0-.5.1-.2.2-.2.5,0,.7.2.2.8.7,1.1,1.1l-.8,1.4h-.2c-.2,0-.4.2-.4.4,0,0,0,0,0,0l-.4-1.2c0-.2-.4-.4-.6-.3-.2,0-.4.4-.3.6v.3c0,0-.7,0-.7,0l1.6-2.6c.1-.2,0-.5-.2-.6-.2-.1-.5,0-.6.2l-.6,1c-.1-.1-.2-.3-.4-.4l.8-1.6c.1-.2,0-.5-.2-.6-.2-.1-.5,0-.6.2l-.7,1.4c-.2,0-.4,0-.5.1-.2.2-.2.5,0,.7.2.2.8.7,1.1,1.1l-.8,1.4h-.2c-.3,0-.5.3-.4.5,0,.2.2.4.5.4s0,0,0,0l2.4-.2c0,.2.2.3.4.3s.1,0,.2,0c.2,0,.3-.2.3-.4,0,.2.2.3.5.3s0,0,0,0l2.4-.2c0,.2.2.3.4.3s.1,0,.2,0c.2,0,.4-.4.3-.6l-.4-1.2Z"/>
    <path class="cls-1" d="m69.1,39.3c-.3,0-.5.2-.5.5v1.8h-1.1v-1.8c0-.3-.2-.5-.5-.5s-.5.2-.5.5v4.6c0,.3.2.5.5.5s.5-.2.5-.5v-1.9h1.2c.5,0,.9-.4.9-.9v-1.9c0-.3-.2-.5-.5-.5Z"/>
    <path class="cls-1" d="m65.2,39.3c-.3,0-.5.2-.5.5,0,.5,0,1.2,0,1.8h-1v-1.8c0-.3-.2-.5-.5-.5s-.5.2-.5.5v1.9c0,.5.4.9.9.9h.9c0,0,0,.1,0,.2-.2.5-.9,1.2-1.1,1.3-.2.2-.2.5,0,.7,0,.1.2.2.4.2s.2,0,.3-.1c.1,0,1.1-.9,1.4-1.7.3-.8.2-3,.2-3.3,0-.3-.2-.5-.5-.5Z"/>
    <path class="cls-1" d="m83.1,43.7h-4.2v-1.3h2.1c.3,0,.5-.2.5-.5s-.2-.5-.5-.5h-2.1v-.4c0-.3-.2-.5-.5-.5s-.5.2-.5.5v.4h-2.1c-.3,0-.5.2-.5.5s.2.5.5.5h2.1v1.3h-4.2c-.3,0-.5.2-.5.5s.2.5.5.5h9.4c.3,0,.5-.2.5-.5s-.2-.5-.5-.5Z"/>
    <path class="cls-1" d="m84.3,39.7c0-.3-.2-.5-.5-.5h-2v-4h1.3c.3,0,.5-.2.5-.5s-.2-.5-.5-.5h-1.3v-.5c0-.3-.2-.5-.5-.5s-.5.2-.5.5v.5h-4.7v-.5c0-.3-.2-.5-.5-.5s-.5.2-.5.5v.5h-1.4c-.3,0-.5.2-.5.5s.2.5.5.5h1.4v4h-2c-.3,0-.5.2-.5.5s.2.5.5.5h2.2c-1,1.1-2.2,1.8-2.2,1.8-.2.1-.3.4-.2.7,0,.2.3.3.4.3s.2,0,.2,0c0,0,1.9-1,3-2.6h3.9c.2.2,1.4,1.8,3.1,2.5,0,0,.1,0,.2,0,.2,0,.4-.1.4-.3.1-.2,0-.5-.2-.7-.9-.4-1.7-1.1-2.2-1.6h2.1c.3,0,.5-.2.5-.5Zm-8.2-2.8h4.7v.6h-4.7v-.6Zm4.7-1.7v.7h-4.7v-.7h4.7Zm-4.7,3.3h4.7v.7h-4.7v-.7Z"/>
    <path class="cls-1" d="m96.7,33.7h-8.6c-.3,0-.5.2-.5.5v10c0,.3.2.5.5.5s.5-.2.5-.5v-9.5h8.2c.3,0,.5.2.5.5v8.2h-7.6c-.3,0-.5.2-.5.5s.2.5.5.5h8.1c.3,0,.5-.2.5-.5v-8.7c0-.8-.7-1.5-1.5-1.5Z"/>
    <path class="cls-1" d="m92.8,35.2c-.3,0-.5.2-.5.5,0,.3,0,.8,0,1.4h-2.3c-.3,0-.5.2-.5.5s.2.5.5.5h2.1c-.1.7-.3,1.3-.5,1.7-.6,1.1-1.8,1.8-1.8,1.8-.2.1-.3.4-.2.7,0,.2.3.3.4.3s.2,0,.2,0c0,0,1.4-.8,2.2-2.2.1-.3.3-.6.4-1,.2.6.6,1.2,1,1.7.9,1,1.6,1.4,1.7,1.4,0,0,.1,0,.2,0,.2,0,.4-.1.4-.3.1-.2,0-.5-.2-.7,0,0-.6-.3-1.4-1.2-.5-.6-.9-1.6-1.1-2.2h2.3c.3,0,.5-.2.5-.5s-.2-.5-.5-.5h-2.6c0-.7,0-1.3,0-1.4,0-.3-.2-.5-.5-.5Z"/>
    <path class="cls-1" d="m107.8,41.8c.3,0,.5-.2.5-.5s-.2-.5-.5-.5h-3.2l.3-.6h2.5c.2,0,.4-.2.4-.4v-1.4c0-.2-.2-.4-.4-.4h-2v-.5h1.7c.2,0,.4-.2.4-.4v-.9h.2c.2,0,.4-.2.4-.4s-.2-.4-.4-.4h-.2v-.9c0-.2-.2-.4-.4-.4h-1.7v-.2c0-.3-.2-.5-.5-.5s-.5.2-.5.5v.2h-1.7c-.2,0-.4.2-.4.4v.9h-.2c-.2,0-.4.2-.4.4s.2.4.4.4h.2v.9c0,.2.2.4.4.4h1.7v.5h-2c-.2,0-.4.2-.4.4v1.4c0,.2.2.4.4.4h1.3l-.3.6h-1.2c-.3,0-.5.2-.5.5s.2.5.5.5h.6l-.3.6c0,.1,0,.3,0,.4,0,.1.1.2.3.3l1.2.5c-1,.3-1.4.3-1.4.3-.3,0-.5.3-.4.5,0,.3.2.4.5.4s0,0,0,0c0,0,.6,0,2.2-.6.2,0,.3-.1.5-.2l1.6.7c0,0,.1,0,.2,0,.2,0,.4-.1.5-.3.1-.3,0-.5-.3-.6l-1.1-.5c.5-.5.7-1.2.9-1.6h.7Zm-1.2-5.3h-1.2v-.4h1.2v.4Zm0-1.8v.4h-1.2v-.4h1.2Zm-3.4,0h1.2v.4h-1.2v-.4Zm0,1.8v-.4h1.2v.4h-1.2Zm3.7,2.3v.5h-1.5v-.5h1.5Zm-4,0h1.5v.5h-1.5v-.5Zm2.4,4.2l-1.5-.6.3-.6h2c-.1.4-.4.8-.8,1.2Z"/>
    <path class="cls-1" d="m111.1,41.7c.8-1.3,1.5-3.9,1.9-5.3,0-.3,0-.6-.2-.8-.2-.2-.5-.4-.8-.4h-2c.1-.8.2-1.4.2-1.5,0-.3-.2-.5-.4-.5-.3,0-.5.2-.5.4,0,0-.2,1.6-.5,2.8-.3,1.2-.9,2.3-1,2.3-.1.2,0,.5.2.7,0,0,.2,0,.2,0,.2,0,.3,0,.4-.3,0,0,.2-.3.4-.7.2,1,.6,2.3,1,3.2-.7,1.1-1.9,2.4-1.9,2.4-.2.2-.2.5,0,.6,0,0,.2.1.3.1s.2,0,.3-.1c0,0,1-1.1,1.7-2.1.9,1.4,1.8,2.2,1.8,2.2,0,0,.2.1.3.1s.2,0,.3-.2c.2-.2.1-.5,0-.6,0,0-1-.9-1.8-2.4Zm-1.4-5c0-.2.1-.4.2-.6h2.2s0,0,0,0c0,0,0,0,0,0,0,0,0,0,0,0-.3,1-.9,3.2-1.5,4.6-.5-1.4-.9-3.2-1-3.8,0,0,0-.1,0-.2Z"/>
    <path class="cls-1" d="m127.5,43.3h-2.6c.9-2.2,1.5-5.1,1.6-5.3,0-.3-.1-.5-.4-.6-.3,0-.5.1-.6.4,0,0-.7,3.3-1.7,5.5h-4c-.3,0-.5.2-.5.5s.2.5.5.5h7.6c.3,0,.5-.2.5-.5s-.2-.5-.5-.5Z"/>
    <path class="cls-1" d="m119.8,33.9c.1-.3,0-.5-.3-.6-.3-.1-.5,0-.6.3,0,0-.5,1.3-1.2,2.2-.7.9-1.7,2.3-1.7,2.3-.2.2-.1.5,0,.7,0,0,.2.1.3.1s.3,0,.4-.2c0,0,.5-.7,1.1-1.4v7.1c0,.3.2.5.5.5s.5-.2.5-.5v-8.4s0,0,0,0c.6-.9,1-1.9,1-1.9Z"/>
    <path class="cls-1" d="m121.2,37.4c-.3,0-.4.4-.3.6,0,0,.5,1.7.6,2.4.1.7.2,1.8.2,1.9,0,.3.2.4.5.4s0,0,0,0c.3,0,.5-.3.4-.5,0,0-.1-1.2-.2-1.9-.1-.8-.6-2.4-.6-2.5,0-.3-.4-.4-.6-.3Z"/>
    <path class="cls-1" d="m123.8,33.7c0-.3-.3-.4-.6-.4-.3,0-.4.3-.4.6l.4,1.7h-2.9c-.3,0-.5.2-.5.5s.2.5.5.5h6.7c.3,0,.5-.2.5-.5s-.2-.5-.5-.5h-2.8l-.5-1.9Z"/>
  </g>
</svg>