<?xml version="1.0" encoding="UTF-8"?>
<svg id="_圖層_10" data-name="圖層 10" xmlns="http://www.w3.org/2000/svg" viewBox="0 0 60 60">
  <defs>
    <style>
      .cls-1 {
        fill: #fff;
      }

      .cls-2 {
        fill: #ec6d34;
      }

      .cls-3 {
        fill: #09537b;
      }
    </style>
  </defs>
  <g>
    <circle class="cls-1" cx="30.13" cy="30" r="30"/>
    <g>
      <path class="cls-1" d="M50.54,25.86c-.68-1.86-3.47-1.78-3.47-1.78,0,0-7.28-.27-12.73-.16,.15-.42,.29-.84,.41-1.24,.71-2.51,.71-10.56-1.42-11.14-2.13-.58-3.24,2.89-5.68,7.47-2.45,4.58-7.02,9.11-7.02,9.11l-1.46,3.91,1.72,.06-.06,10.95c3.81,2.96,10.92,3.39,10.92,3.39h8.21c5-.08,6.44-.68,6.44-3.05,0-1.56-1.57-1.97-2.64-2.07,1.1-.07,2.84-.49,3.57-2.33,1.1-2.79-1.61-3.9-1.61-3.9,2.46-.08,3.47-.85,3.56-3.13,.08-2.13-2.49-2.13-2.84-2.12,3.94-.1,4.78-2.12,4.11-3.98Z"/>
      <path class="cls-3" d="M31.75,47.18c-.34-.02-7.43-.47-11.38-3.54-.18-.14-.29-.36-.29-.59l.06-10.24-1-.04c-.24,0-.46-.13-.59-.33-.13-.2-.16-.45-.08-.67l1.46-3.91c.04-.1,.1-.19,.17-.27,.04-.04,4.53-4.51,6.89-8.94,.5-.94,.94-1.82,1.35-2.64,1.68-3.38,2.9-5.81,5.18-5.2,.52,.14,.96,.53,1.31,1.15,1.41,2.49,1.24,8.73,.63,10.91-.03,.09-.05,.19-.08,.28,5.25-.07,11.65,.17,11.72,.18,.09,0,3.29-.07,4.14,2.27h0c.42,1.15,.32,2.27-.28,3.15-.3,.44-.81,.93-1.66,1.29,0,0,0,0,0,0,.49,.49,.73,1.16,.71,1.93-.07,2-.81,3.12-2.45,3.59,.68,.84,1.08,2.06,.45,3.68-.37,.93-.99,1.65-1.83,2.13,.62,.48,.95,1.16,.95,2,0,3.41-2.84,3.72-7.17,3.79h-8.23Zm-10.18-4.5c3.65,2.59,10.16,3.01,10.22,3.02h8.17c5.44-.09,5.69-.86,5.69-2.31,0-.76-.66-1.21-1.96-1.33-.39-.04-.68-.36-.67-.75,0-.39,.31-.71,.69-.73,1.03-.07,2.37-.45,2.93-1.87,.81-2.05-.99-2.85-1.2-2.94-.32-.13-.51-.47-.45-.82,.06-.34,.36-.6,.71-.61,2.16-.07,2.77-.59,2.84-2.42,.02-.48-.15-.7-.28-.83-.43-.43-1.3-.53-1.77-.52-.02,0-.03,0-.05,0-.4,0-.73-.32-.74-.72-.01-.41,.31-.75,.72-.76,.01,0,.02,0,.03,0,1.64-.04,2.81-.46,3.29-1.18,.41-.6,.29-1.31,.11-1.8h0c-.48-1.33-2.72-1.29-2.75-1.29-.12,0-7.37-.27-12.74-.16-.26,0-.48-.11-.62-.31-.14-.2-.18-.46-.09-.69,.15-.4,.28-.8,.39-1.19,.6-2.13,.59-7.87-.49-9.78-.14-.25-.29-.41-.41-.44-1.05-.29-1.96,1.41-3.46,4.43-.41,.83-.86,1.73-1.37,2.68-2.28,4.27-6.29,8.42-7.04,9.17l-1.04,2.79,.69,.02c.4,.01,.72,.34,.72,.75l-.06,10.58Z"/>
    </g>
    <g>
      <path class="cls-2" d="M20.41,23.15h-3.88s-3.79,.17-3.88,5.31v13.4s.25,4.13,3.96,4.3h2.7s2.61,.25,2.53-1.6,0-19.38,0-19.38c0,0,.34-1.94-1.43-2.02Z"/>
      <path class="cls-3" d="M19.63,46.92c-.2,0-.34-.01-.39-.02h-2.62c-3.5-.15-4.61-3.34-4.71-5v-13.45c.09-5.79,4.55-6.06,4.59-6.06h3.93s.02,0,.02,0c.89,.04,1.39,.45,1.66,.78,.6,.75,.52,1.76,.48,2.05,0,1.07-.08,17.53,0,19.29,.03,.66-.19,1.23-.62,1.64-.69,.66-1.76,.76-2.34,.76Zm-.31-1.51c.43,.04,1.28,0,1.62-.33,.08-.08,.17-.2,.16-.49-.08-1.85,0-18.71,0-19.42v-.12c.04-.15,.06-.66-.16-.93-.04-.05-.16-.2-.54-.22h-3.86c-.28,.02-3.06,.31-3.13,4.57v13.39c0,.09,.27,3.41,3.25,3.55h2.66Z"/>
    </g>
  </g>
  <path class="cls-3" d="M46.33,30.66h-5.31c-.41,0-.74-.33-.74-.74s.33-.74,.74-.74h5.31c.41,0,.74,.33,.74,.74s-.33,.74-.74,.74Z"/>
  <path class="cls-3" d="M45.85,35.83h-4.54c-.41,0-.74-.33-.74-.74s.33-.74,.74-.74h4.54c.41,0,.74,.33,.74,.74s-.33,.74-.74,.74Z"/>
  <path class="cls-3" d="M43.89,42.01h-5.08c-.41,0-.74-.33-.74-.74s.33-.74,.74-.74h5.08c.41,0,.74,.33,.74,.74s-.33,.74-.74,.74Z"/>
</svg>